<?xml version="1.0" encoding="UTF-8"?>
<svg version="1.1" xmlns="http://www.w3.org/2000/svg" width="181" height="180">
<path d="M0 0 C1.02530319 0.00555908 1.02530319 0.00555908 2.07131958 0.01123047 C23.93287166 0.18000852 41.26814365 6.79648521 58.625 20.0625 C59.40617188 20.65289063 60.18734375 21.24328125 60.9921875 21.8515625 C61.57226562 22.37492187 62.15234375 22.89828125 62.75 23.4375 C62.75 24.0975 62.75 24.7575 62.75 25.4375 C63.74 25.7675 64.73 26.0975 65.75 26.4375 C80.72783189 40.63678122 90.43420985 61.73329738 91.31640625 82.3046875 C91.34405457 84.97867508 91.34803213 87.63990761 91.3125 90.3125 C91.30790771 91.01060791 91.30331543 91.70871582 91.29858398 92.42797852 C91.19947309 103.40670517 90.26701366 113.3273606 85.75 123.4375 C85.46060547 124.11119629 85.17121094 124.78489258 84.87304688 125.47900391 C80.05760827 136.48754641 73.77572626 147.32193101 64.75 155.4375 C64.09 155.4375 63.43 155.4375 62.75 155.4375 C62.50121094 156.02789062 62.25242188 156.61828125 61.99609375 157.2265625 C55.11300469 169.43919074 34.84273071 175.51250087 22.29296875 179.0546875 C15.03179011 180.81863907 7.94338104 180.93337588 0.5 180.875 C-0.18353546 180.87129395 -0.86707092 180.86758789 -1.57131958 180.86376953 C-23.43287166 180.69499148 -40.76814365 174.07851479 -58.125 160.8125 C-59.29675781 159.92691406 -59.29675781 159.92691406 -60.4921875 159.0234375 C-61.07226562 158.50007812 -61.65234375 157.97671875 -62.25 157.4375 C-62.25 156.7775 -62.25 156.1175 -62.25 155.4375 C-63.24 155.1075 -64.23 154.7775 -65.25 154.4375 C-80.22783189 140.23821878 -89.93420985 119.14170262 -90.81640625 98.5703125 C-90.84405457 95.89632492 -90.84803213 93.23509239 -90.8125 90.5625 C-90.80790771 89.86439209 -90.80331543 89.16628418 -90.79858398 88.44702148 C-90.69947309 77.46829483 -89.76701366 67.5476394 -85.25 57.4375 C-84.96060547 56.76380371 -84.67121094 56.09010742 -84.37304688 55.39599609 C-79.55760827 44.38745359 -73.27572626 33.55306899 -64.25 25.4375 C-63.59 25.4375 -62.93 25.4375 -62.25 25.4375 C-62.00121094 24.84710937 -61.75242187 24.25671875 -61.49609375 23.6484375 C-54.61300469 11.43580926 -34.34273071 5.36249913 -21.79296875 1.8203125 C-14.53179011 0.05636093 -7.44338104 -0.05837588 0 0 Z " fill="#070707" transform="translate(90.25,-0.4375)"/>
<path d="M0 0 C1.02530319 0.00555908 1.02530319 0.00555908 2.07131958 0.01123047 C23.93287166 0.18000852 41.26814365 6.79648521 58.625 20.0625 C59.40617188 20.65289063 60.18734375 21.24328125 60.9921875 21.8515625 C61.57226562 22.37492187 62.15234375 22.89828125 62.75 23.4375 C62.75 24.0975 62.75 24.7575 62.75 25.4375 C63.74 25.7675 64.73 26.0975 65.75 26.4375 C80.72783189 40.63678122 90.43420985 61.73329738 91.31640625 82.3046875 C91.34405457 84.97867508 91.34803213 87.63990761 91.3125 90.3125 C91.30790771 91.01060791 91.30331543 91.70871582 91.29858398 92.42797852 C91.19947309 103.40670517 90.26701366 113.3273606 85.75 123.4375 C85.46060547 124.11119629 85.17121094 124.78489258 84.87304688 125.47900391 C80.05760827 136.48754641 73.77572626 147.32193101 64.75 155.4375 C64.09 155.4375 63.43 155.4375 62.75 155.4375 C62.09 156.7575 61.43 158.0775 60.75 159.4375 C59.76 159.4375 58.77 159.4375 57.75 159.4375 C57.60304688 158.86902344 57.45609375 158.30054688 57.3046875 157.71484375 C57.08039063 156.94269531 56.85609375 156.17054688 56.625 155.375 C56.41617188 154.62089844 56.20734375 153.86679688 55.9921875 153.08984375 C54.77588457 150.49276926 53.66855141 149.24576813 51.703125 147.22265625 C48.0030483 143.06582851 47.72768084 139.35391432 47.625 133.9375 C47.57085937 133.12152344 47.51671875 132.30554688 47.4609375 131.46484375 C47.26697765 126.42996931 47.94106523 123.65662182 50.72949219 119.3293457 C55.3625018 110.74054391 53.81451636 99.66587654 53.375 90.25 C53.31659904 88.80668508 53.25929999 87.36332514 53.203125 85.91992188 C53.06475607 82.42517155 52.91157977 78.93126331 52.75 75.4375 C52.58564453 76.29021484 52.58564453 76.29021484 52.41796875 77.16015625 C51.3719514 82.25417571 49.83177354 86.65431276 47.75 91.4375 C46.80605885 94.74757579 46.09573945 98.11148211 45.37695312 101.4765625 C42.50100788 113.94300298 34.11209194 119.71657298 23.75 126.375 C21.44165982 127.81443372 19.18243228 129.22128386 16.75 130.4375 C17.41 130.7675 18.07 131.0975 18.75 131.4375 C12.03596187 134.40717071 12.03596187 134.40717071 9.6875 134.65625 C7.43733203 135.32508027 7.43733203 135.32508027 6.265625 138.16015625 C5.84796875 139.26230469 5.4303125 140.36445313 5 141.5 C4.57203125 142.60472656 4.1440625 143.70945313 3.703125 144.84765625 C3.23132813 146.12962891 3.23132813 146.12962891 2.75 147.4375 C1.76 147.4375 0.77 147.4375 -0.25 147.4375 C-0.25 146.1175 -0.25 144.7975 -0.25 143.4375 C-0.91 145.0875 -1.57 146.7375 -2.25 148.4375 C-3.9 148.4375 -5.55 148.4375 -7.25 148.4375 C-6.93817931 147.02068366 -6.62551263 145.60405349 -6.3125 144.1875 C-6.13847656 143.39859375 -5.96445313 142.6096875 -5.78515625 141.796875 C-5.302444 139.66871297 -4.78836822 137.55217158 -4.25 135.4375 C-5.219375 134.963125 -6.18875 134.48875 -7.1875 134 C-10.25 132.4375 -10.25 132.4375 -11.25 131.4375 C-11.229375 130.385625 -11.20875 129.33375 -11.1875 128.25 C-11.25051894 124.40584441 -11.95975826 122.02150483 -13.25 118.4375 C-13.76903109 116.22562904 -14.23574476 114.00775799 -14.6875 111.78125 C-15.21967748 109.34266117 -15.21967748 109.34266117 -16.28393555 106.72680664 C-17.35167639 103.09130692 -17.40345407 100.24401809 -17.26953125 96.46484375 C-17.24052734 95.15322266 -17.21152344 93.84160156 -17.18164062 92.49023438 C-17.1258125 90.42705317 -17.06211109 88.36490372 -16.98266602 86.30249023 C-16.90989764 84.29479881 -16.87056394 82.28598392 -16.83203125 80.27734375 C-16.79311768 79.08488037 -16.7542041 77.89241699 -16.71411133 76.66381836 C-17.40808864 72.48572716 -19.11149584 71.17265871 -22.25 68.4375 C-24.33984375 65.28125 -24.33984375 65.28125 -26.1875 61.9375 C-26.81527344 60.8340625 -27.44304688 59.730625 -28.08984375 58.59375 C-29.25 55.4375 -29.25 55.4375 -28.56640625 52.78125 C-28.13199219 52.0078125 -27.69757812 51.234375 -27.25 50.4375 C-25.22791656 46.70276226 -24.91114162 43.76191869 -24.69140625 39.55859375 C-24.1436992 36.92669172 -23.19607418 36.24555473 -21.25 34.4375 C-18.83825302 30.84735513 -17.36791664 27.25755148 -15.9375 23.1875 C-13.74858172 17.32146596 -11.00442299 12.43049553 -7.25 7.4375 C-17.87438513 6.7649129 -26.50448464 6.4257447 -35.25 13.4375 C-36.95558622 15.16915413 -38.45758527 16.92421697 -39.92578125 18.859375 C-41.25 20.4375 -41.25 20.4375 -44.25 22.3125 C-47.48913616 24.60688812 -47.95512 25.79856013 -49.625 29.25 C-51.0625 31.640625 -51.0625 31.640625 -53.25 33.4375 C-58.73928709 33.93850636 -63.82773963 33.31974426 -69.25 32.4375 C-68.12994369 29.07733107 -66.87788203 27.74685087 -64.25 25.4375 C-63.59 25.4375 -62.93 25.4375 -62.25 25.4375 C-62.00121094 24.84710937 -61.75242187 24.25671875 -61.49609375 23.6484375 C-54.61300469 11.43580926 -34.34273071 5.36249913 -21.79296875 1.8203125 C-14.53179011 0.05636093 -7.44338104 -0.05837588 0 0 Z " fill="#080707" transform="translate(90.25,-0.4375)"/>
<path d="M0 0 C0.33 0 0.66 0 1 0 C1.21952495 4.64001159 1.41584042 9.28026006 1.59204102 13.92211914 C1.65490415 15.49626988 1.72376206 17.07019446 1.79907227 18.64379883 C2.77162849 39.17191514 2.77162849 39.17191514 -2.68359375 47.6015625 C-4.77907258 51.41943788 -4.29668393 55.11351206 -4.0625 59.375 C-4.05154297 60.2 -4.04058594 61.025 -4.02929688 61.875 C-3.75301035 67.58190189 -2.3882591 70.39430038 1.58129883 74.46777344 C3.41615368 76.44945456 4.15912584 78.35239888 4.875 80.9375 C5.21144531 82.09572266 5.21144531 82.09572266 5.5546875 83.27734375 C5.70164063 83.84582031 5.84859375 84.41429687 6 85 C-6.98166165 98.76842902 -25.70654258 105.62824095 -44.34375 106.37890625 C-70.0092043 107.07207961 -90.20971163 102.16968168 -110.875 86.375 C-112.04675781 85.48941406 -112.04675781 85.48941406 -113.2421875 84.5859375 C-113.82226562 84.06257813 -114.40234375 83.53921875 -115 83 C-115 82.34 -115 81.68 -115 81 C-115.99 80.67 -116.98 80.34 -118 80 C-123.21038702 75.05454792 -127.18227984 69.04122751 -131 63 C-130.01 62.505 -130.01 62.505 -129 62 C-129.33 58.04 -129.66 54.08 -130 50 C-128.515 49.6596875 -128.515 49.6596875 -127 49.3125 C-123.18048509 48.23223316 -120.20722863 46.40489249 -116.91796875 44.22265625 C-115 43 -115 43 -111.75 41.5 C-108.60536276 39.78474332 -107.15148383 37.81918571 -105 35 C-103.515 34.505 -103.515 34.505 -102 34 C-102 35.32 -102 36.64 -102 38 C-101.67 37.236875 -101.34 36.47375 -101 35.6875 C-98.17349935 31.88938975 -95.47406586 31.3935615 -91 30 C-91.14308594 31.28583984 -91.14308594 31.28583984 -91.2890625 32.59765625 C-91.91025669 39.00462426 -92.2642774 43.96192693 -90 50 C-89.64628502 51.66246041 -89.30404678 53.32774271 -89 55 C-88.34 55 -87.68 55 -87 55 C-85.59765625 56.6796875 -85.59765625 56.6796875 -84.0625 58.875 C-82.10052062 61.67496035 -80.90905857 63.06062762 -78 65 C-77.7492196 67.68991838 -77.67356568 70.13013309 -77.75 72.8125 C-77.75515625 73.52470703 -77.7603125 74.23691406 -77.765625 74.97070312 C-77.82166615 78.75698318 -78.10317772 82.3186892 -79 86 C-80.65 84.35 -82.3 82.7 -84 81 C-84 83.52076285 -80.56567431 86.24793589 -79 88 C-78.34 88 -77.68 88 -77 88 C-77 89.32 -77 90.64 -77 92 C-76.34 92 -75.68 92 -75 92 C-73.19769832 95.82989106 -72.80377759 98.78121808 -73 103 C-72.01 103 -71.02 103 -70 103 C-69.71125 101.9275 -69.4225 100.855 -69.125 99.75 C-68 96 -68 96 -66.9375 93.9375 C-64.42754828 88.75026644 -64.86602823 82.73213364 -64.90234375 77.1015625 C-64.9037587 76.26660248 -64.90517365 75.43164246 -64.90663147 74.57138062 C-64.91219826 71.92254958 -64.92474453 69.2738052 -64.9375 66.625 C-64.9425193 64.82161581 -64.94708145 63.01823029 -64.95117188 61.21484375 C-64.9621568 56.80986279 -64.97939837 52.40494606 -65 48 C-62.70986347 51.4352048 -62.82157027 52.985331 -63 57 C-60.69 58.32 -58.38 59.64 -56 61 C-56.47656412 62.79236067 -56.95633498 64.58386897 -57.4375 66.375 C-57.70433594 67.37273437 -57.97117187 68.37046875 -58.24609375 69.3984375 C-59 72 -59 72 -60 74 C-58.35 74 -56.7 74 -55 74 C-54.71125 72.865625 -54.4225 71.73125 -54.125 70.5625 C-53.568125 68.7990625 -53.568125 68.7990625 -53 67 C-52.34 66.67 -51.68 66.34 -51 66 C-51.66 68.31 -52.32 70.62 -53 73 C-52.01 73 -51.02 73 -50 73 C-49.70996094 71.96939453 -49.70996094 71.96939453 -49.4140625 70.91796875 C-49.15367188 70.01691406 -48.89328125 69.11585938 -48.625 68.1875 C-48.36976562 67.29417969 -48.11453125 66.40085937 -47.8515625 65.48046875 C-47 63 -47 63 -45 60 C-41.375 58.8125 -41.375 58.8125 -38 58 C-39.98 57.505 -39.98 57.505 -42 57 C-40.783125 56.505 -39.56625 56.01 -38.3125 55.5 C-27.22030227 50.56818424 -15.37590917 44.30775939 -10 33 C-8.97586046 30.06053392 -8.19394117 27.08062384 -7.4375 24.0625 C-5.93341685 18.20997845 -4.17691066 12.63963394 -2 7 C-1.28160809 4.67744005 -0.63568045 2.34712781 0 0 Z " fill="#070707" transform="translate(143,74)"/>
<path d="M0 0 C0.66 0 1.32 0 2 0 C3.08719681 1.21060834 4.12054624 2.46990544 5.125 3.75 C12.20645623 11.95870844 21.86360271 13.51869441 32 16 C30.77207194 19.89733689 29.65575614 22.86137911 27 26 C31.31657734 24.65245784 32.97608894 23.02027733 35.5625 19.375 C38.09550401 16.33636755 39.24842903 15.13924812 43.18359375 14.41015625 C46.1703105 14.43478171 49.04135952 14.60058353 52 15 C44.375 14.125 44.375 14.125 41 13 C41.80824219 12.61328125 42.61648437 12.2265625 43.44921875 11.828125 C44.51785156 11.30734375 45.58648437 10.7865625 46.6875 10.25 C47.74324219 9.73953125 48.79898438 9.2290625 49.88671875 8.703125 C52.90003083 7.05468828 55.39287648 5.22500338 58 3 C57.11359489 19.35264599 57.11359489 19.35264599 51.8125 25.5625 C51.214375 26.036875 50.61625 26.51125 50 27 C52.97 25.515 52.97 25.515 56 24 C56.0828413 25.35307462 56.14000368 26.70772411 56.1875 28.0625 C56.23970703 29.19365234 56.23970703 29.19365234 56.29296875 30.34765625 C55.97265953 33.24752238 54.98945893 35.47877935 53.78198242 38.11499023 C52.20037984 41.92752645 51.48665524 46.01426875 50.62695312 50.0390625 C47.75100788 62.50550298 39.36209194 68.27907298 29 74.9375 C26.69165982 76.37693372 24.43243228 77.78378386 22 79 C22.99 79.495 22.99 79.495 24 80 C17.28596187 82.96967071 17.28596187 82.96967071 14.9375 83.21875 C12.68733203 83.88758027 12.68733203 83.88758027 11.515625 86.72265625 C11.09796875 87.82480469 10.6803125 88.92695313 10.25 90.0625 C9.82203125 91.16722656 9.3940625 92.27195312 8.953125 93.41015625 C8.63859375 94.26480469 8.3240625 95.11945313 8 96 C7.01 96 6.02 96 5 96 C5 94.68 5 93.36 5 92 C4.34 93.65 3.68 95.3 3 97 C1.35 97 -0.3 97 -2 97 C-1.68817931 95.58318366 -1.37551263 94.16655349 -1.0625 92.75 C-0.88847656 91.96109375 -0.71445313 91.1721875 -0.53515625 90.359375 C-0.052444 88.23121297 0.46163178 86.11467158 1 84 C0.030625 83.525625 -0.93875 83.05125 -1.9375 82.5625 C-5 81 -5 81 -6 80 C-5.979375 78.948125 -5.95875 77.89625 -5.9375 76.8125 C-6.00051894 72.96834441 -6.70975826 70.58400483 -8 67 C-8.51903109 64.78812904 -8.98574476 62.57025799 -9.4375 60.34375 C-9.96995206 57.90777213 -9.96995206 57.90777213 -11.02294922 55.30029297 C-12.10441457 51.6473073 -12.22782849 48.65593293 -12.1953125 44.8515625 C-12.1924826 44.19417084 -12.18965271 43.53677917 -12.18673706 42.85946655 C-12.17563447 40.78111767 -12.15054986 38.70321634 -12.125 36.625 C-12.11495731 35.20703752 -12.10583373 33.78906821 -12.09765625 32.37109375 C-12.07572805 28.91391963 -12.04126818 25.45700358 -12 22 C-11.23107422 22.35376709 -10.46214844 22.70753418 -9.66992188 23.07202148 C-6.96887792 24.34541665 -6.96887792 24.34541665 -4.28125 22.84765625 C-3.3634375 22.25855469 -2.445625 21.66945313 -1.5 21.0625 C3.37943768 17.94432002 3.37943768 17.94432002 6.69921875 18.2421875 C8.93915904 18.9799607 10.93990147 19.85550082 13 21 C12.505 20.54625 12.01 20.0925 11.5 19.625 C10 18 10 18 10 16 C13.3 15.67 16.6 15.34 20 15 C8.50472896 16.21180017 8.50472896 16.21180017 5.09375 13.46484375 C2.47701717 9.32434271 1.08800329 4.74765072 0 0 Z " fill="#EBD9C8" transform="translate(85,51)"/>
<path d="M0 0 C9.98084367 1.43622341 19.88072642 9.14848671 27 16 C27 16.66 27 17.32 27 18 C27.99 18.33 28.98 18.66 30 19 C44.97783189 33.19928122 54.68420985 54.29579738 55.56640625 74.8671875 C55.59405457 77.54117508 55.59803213 80.20240761 55.5625 82.875 C55.55790771 83.57310791 55.55331543 84.27121582 55.54858398 84.99047852 C55.44947309 95.96920517 54.51701366 105.8898606 50 116 C49.71060547 116.67369629 49.42121094 117.34739258 49.12304688 118.04150391 C44.30760827 129.05004641 38.02572626 139.88443101 29 148 C28.34 148 27.68 148 27 148 C26.01 149.98 26.01 149.98 25 152 C24.01 152 23.02 152 22 152 C21.85304687 151.43152344 21.70609375 150.86304688 21.5546875 150.27734375 C21.33039063 149.50519531 21.10609375 148.73304688 20.875 147.9375 C20.66617188 147.18339844 20.45734375 146.42929688 20.2421875 145.65234375 C19.02588457 143.05526926 17.91855141 141.80826813 15.953125 139.78515625 C12.2530483 135.62832851 11.97768084 131.91641432 11.875 126.5 C11.82085937 125.68402344 11.76671875 124.86804688 11.7109375 124.02734375 C11.48111998 118.06166408 12.79289694 114.9820265 16 110 C16.65417934 107.73238016 16.65417934 107.73238016 16.875 105.625 C17.74696473 101.06454731 19.73241328 98.08262204 22.39453125 94.3359375 C24.09962968 91.85504003 25.57962417 89.34146251 27 86.6875 C27.433125 85.88699219 27.86625 85.08648437 28.3125 84.26171875 C29.22933751 82.01287658 29.22933751 82.01287658 28.3125 79.83203125 C26.96255673 77.71985134 26.96255673 77.71985134 24 76 C24 75.34 24 74.68 24 74 C23.34 74 22.68 74 22 74 C21.5625 70.875 21.5625 70.875 22 67 C23.61183387 65.16394777 25.30499244 63.80128126 27.2734375 62.359375 C31.45254814 59.0690345 31.78370862 54.72718688 32.625 49.8125 C32.7590625 49.06291016 32.893125 48.31332031 33.03125 47.54101562 C33.36045419 45.69512072 33.68106498 43.84769691 34 42 C33.05898437 42.0515625 32.11796875 42.103125 31.1484375 42.15625 C28 42 28 42 25.625 39.5 C25.08875 38.675 24.5525 37.85 24 37 C23.01 38.65 22.02 40.3 21 42 C20 40 20 40 20.99609375 36.59375 C21.46914119 35.22657627 21.94995492 33.8620711 22.4375 32.5 C24.26823833 27.85807947 24.26823833 27.85807947 25 23 C23.93072266 22.75830078 23.93072266 22.75830078 22.83984375 22.51171875 C16.79074207 20.79387157 13.53875538 19.16625037 10.25 13.6875 C9.71761719 12.72457031 9.18523437 11.76164062 8.63671875 10.76953125 C6.61949767 7.35614284 4.18631808 4.90743067 1.28515625 2.2421875 C0.86105469 1.83226562 0.43695313 1.42234375 0 1 C0 0.67 0 0.34 0 0 Z " fill="#8F897B" transform="translate(126,7)"/>
<path d="M0 0 C1 2 1 2 0.5625 3.6875 C-0.84805091 9.4864315 0.24266215 14.417868 2 20 C2.35371498 21.66246041 2.69595322 23.32774271 3 25 C3.66 25 4.32 25 5 25 C6.40234375 26.6796875 6.40234375 26.6796875 7.9375 28.875 C9.89947938 31.67496035 11.09094143 33.06062762 14 35 C14.2507804 37.68991838 14.32643432 40.13013309 14.25 42.8125 C14.24484375 43.52470703 14.2396875 44.23691406 14.234375 44.97070312 C14.17833385 48.75698318 13.89682228 52.3186892 13 56 C11.35 54.35 9.7 52.7 8 51 C8 53.52076285 11.43432569 56.24793589 13 58 C13.66 58 14.32 58 15 58 C15 59.32 15 60.64 15 62 C15.66 62 16.32 62 17 62 C18.80230168 65.82989106 19.19622241 68.78121808 19 73 C19.66 73 20.32 73 21 73 C21 73.66 21 74.32 21 75 C5.94902277 72.52586676 -6.83078607 65.58051031 -18.875 56.375 C-19.65617187 55.78460938 -20.43734375 55.19421875 -21.2421875 54.5859375 C-21.82226562 54.06257813 -22.40234375 53.53921875 -23 53 C-23 52.34 -23 51.68 -23 51 C-23.99 50.67 -24.98 50.34 -26 50 C-31.21038702 45.05454792 -35.18227984 39.04122751 -39 33 C-38.01 32.505 -38.01 32.505 -37 32 C-37.33 28.04 -37.66 24.08 -38 20 C-36.515 19.6596875 -36.515 19.6596875 -35 19.3125 C-31.18048509 18.23223316 -28.20722863 16.40489249 -24.91796875 14.22265625 C-23 13 -23 13 -19.75 11.5 C-16.60536276 9.78474332 -15.15148383 7.81918571 -13 5 C-12.01 4.67 -11.02 4.34 -10 4 C-10 5.32 -10 6.64 -10 8 C-9.4740625 6.8553125 -9.4740625 6.8553125 -8.9375 5.6875 C-6.34497636 2.09141882 -4.12552594 1.47896213 0 0 Z " fill="#030303" transform="translate(51,104)"/>
<path d="M0 0 C3.77001757 0.40978452 5.80106814 0.86737876 9 3 C9 3.99 9 4.98 9 6 C8.26394531 6.24234375 7.52789062 6.4846875 6.76953125 6.734375 C1.51668604 8.53852263 -2.92342803 10.06399948 -7 14 C-6.67 14 -6.34 14 -6 14 C-6 15.65 -6 17.3 -6 19 C-5.13117188 18.6390625 -4.26234375 18.278125 -3.3671875 17.90625 C-2.21476562 17.4421875 -1.06234375 16.978125 0.125 16.5 C1.26195313 16.0359375 2.39890625 15.571875 3.5703125 15.09375 C6.97584402 14.0077035 9.45629428 13.66324434 13 14 C14.0194119 14.98020375 15.02246356 15.97803008 16 17 C17.91466367 16.87822312 17.91466367 16.87822312 20 16 C21.0725 15.649375 22.145 15.29875 23.25 14.9375 C24.1575 14.628125 25.065 14.31875 26 14 C32.0990767 22.9453125 32.0990767 22.9453125 31.7578125 26.578125 C31.54898438 27.45984375 31.34015625 28.3415625 31.125 29.25 C30.92132813 30.14203125 30.71765625 31.0340625 30.5078125 31.953125 C30.34023437 32.62859375 30.17265625 33.3040625 30 34 C30.66 34 31.32 34 32 34 C32 34.99 32 35.98 32 37 C26.39 37.66 20.78 38.32 15 39 C15.33 38.01 15.66 37.02 16 36 C14.68 36 13.36 36 12 36 C12.66 37.65 13.32 39.3 14 41 C14.66 41 15.32 41 16 41 C17.70884005 42.62339805 19.37446717 44.29319053 21 46 C21.66 46.66 22.32 47.32 23 48 C22 49 21 50 20 51 C19.38125 51.721875 18.7625 52.44375 18.125 53.1875 C16 55 16 55 13.73046875 55.35546875 C10.06031263 54.87766588 8.1289798 53.33800086 5.1875 51.125 C4.21167969 50.40570313 3.23585938 49.68640625 2.23046875 48.9453125 C1.49441406 48.30335937 0.75835937 47.66140625 0 47 C0 46.34 0 45.68 0 45 C-0.5775 44.731875 -1.155 44.46375 -1.75 44.1875 C-7.16251086 41.33089705 -9.27103362 38.61337993 -11.23828125 32.859375 C-12.28418193 27.56014488 -12.405778 22.39107105 -12.4375 17 C-12.44749023 15.97229492 -12.45748047 14.94458984 -12.46777344 13.88574219 C-12.45649414 12.91282227 -12.44521484 11.93990234 -12.43359375 10.9375 C-12.42384521 10.05964844 -12.41409668 9.18179688 -12.40405273 8.27734375 C-11.92645961 5.5855077 -11.09261747 4.69268577 -9 3 C-7.02 3.66 -5.04 4.32 -3 5 C-2.690625 4.360625 -2.38125 3.72125 -2.0625 3.0625 C-1 1 -1 1 0 0 Z " fill="#FCFCFB" transform="translate(85,74)"/>
<path d="M0 0 C6.6 0.33 13.2 0.66 20 1 C19.79824347 4.3786691 19.56472941 7.75003657 19.3125 11.125 C19.25900391 12.07632813 19.20550781 13.02765625 19.15039062 14.0078125 C18.64698805 20.31128818 17.76076842 23.71252435 13 28 C9.20517176 29.85148044 5.19261636 30 1 30 C1.04640625 30.85078125 1.0928125 31.7015625 1.140625 32.578125 C1.59897257 47.96550759 -1.12894809 63.14525599 -8 77 C-10 76 -10 76 -10.83398438 74.04541016 C-13.20293799 65.84085295 -13.55742474 57.85108898 -13.5 49.375 C-13.49790527 48.66690186 -13.49581055 47.95880371 -13.49365234 47.22924805 C-13.3821731 28.95697344 -8.50514233 16.00119999 0 0 Z " fill="#9C9181" transform="translate(13,41)"/>
<path d="M0 0 C4.62 0 9.24 0 14 0 C15.10244399 25.06222668 8.71525645 45.27233765 -7 65 C-8.32 64.67 -9.64 64.34 -11 64 C-11.0825 63.38125 -11.165 62.7625 -11.25 62.125 C-11.81258459 59.81562433 -11.81258459 59.81562433 -14.0625 58.75 C-14.701875 58.5025 -15.34125 58.255 -16 58 C-15.67 56.35 -15.34 54.7 -15 53 C-15.99 53 -16.98 53 -18 53 C-18.66 49.7 -19.32 46.4 -20 43 C-19.34 43 -18.68 43 -18 43 C-17.87625 42.38125 -17.7525 41.7625 -17.625 41.125 C-17 39 -17 39 -15 37 C-14.66020252 34.6945386 -14.55849274 32.42037177 -14.44140625 30.09375 C-14 28 -14 28 -11 26 C-9.67432801 25.31822584 -8.34246312 24.64808564 -7 24 C-7.33 23.34 -7.66 22.68 -8 22 C-7.01 21.34 -6.02 20.68 -5 20 C-5.33 19.34 -5.66 18.68 -6 18 C-5.34 17.34 -4.68 16.68 -4 16 C-4 15.01 -4 14.02 -4 13 C-3.34 12.34 -2.68 11.68 -2 11 C0.74024324 6.43292793 1.09703267 5.48516335 0 0 Z " fill="#282827" transform="translate(167,85)"/>
<path d="M0 0 C3.5 0.1875 3.5 0.1875 5.5 1.1875 C6.14746901 3.76252581 6.6719291 6.26521916 7.125 8.875 C7.32609375 9.93750977 7.32609375 9.93750977 7.53125 11.02148438 C8.11065351 14.22298437 8.50395691 17.06498792 8.3984375 20.33203125 C8.29764601 23.29395793 8.29764601 23.29395793 9.97265625 25.99609375 C11.97476309 30.17952415 11.89721287 33.67786822 11.9375 38.25 C12.14515945 45.53141028 13.06542545 51.54964583 15.5625 58.42578125 C17.20342425 63.25967062 17.62497956 67.94130229 17.59765625 73.0234375 C17.59443359 74.08691406 17.59121094 75.15039062 17.58789062 76.24609375 C17.57532227 77.88771484 17.57532227 77.88771484 17.5625 79.5625 C17.55798828 80.68011719 17.55347656 81.79773438 17.54882812 82.94921875 C17.53709244 85.69536804 17.52067363 88.44140586 17.5 91.1875 C14.5 91.1875 14.5 91.1875 12.67578125 89.4375 C12.06089844 88.695 11.44601563 87.9525 10.8125 87.1875 C10.18988281 86.445 9.56726562 85.7025 8.92578125 84.9375 C8.45527344 84.36 7.98476563 83.7825 7.5 83.1875 C8.49 83.1875 9.48 83.1875 10.5 83.1875 C12.6875 85.6875 12.6875 85.6875 14.5 88.1875 C15.74854249 84.25766133 15.79358419 80.27309328 15.875 76.1875 C15.91238281 75.4759375 15.94976562 74.764375 15.98828125 74.03125 C16.08228003 71.65218618 16.08228003 71.65218618 15.5 68.1875 C13.20208206 65.76303965 13.20208206 65.76303965 10.5 64.1875 C7.5 60.67025862 7.5 60.67025862 7.5 58.1875 C6.84 58.1875 6.18 58.1875 5.5 58.1875 C1.85396055 50.10280382 0.34844065 43.06268233 2.5 34.1875 C-2.73525115 35.97269047 -2.73525115 35.97269047 -6.4375 39.875 C-6.788125 40.638125 -7.13875 41.40125 -7.5 42.1875 C-7.83 40.8675 -8.16 39.5475 -8.5 38.1875 C-9.16 38.1875 -9.82 38.1875 -10.5 38.1875 C-10.9021875 39.0846875 -10.9021875 39.0846875 -11.3125 40 C-13.7359845 44.46431356 -16.97703232 46.08274465 -21.5 48.25 C-24.66667026 49.77512428 -27.57249392 51.23582928 -30.5 53.1875 C-33.1875 53.3125 -33.1875 53.3125 -35.5 53.1875 C-35.17 54.1775 -34.84 55.1675 -34.5 56.1875 C-34.43259135 57.74868428 -34.41485544 59.3125252 -34.4375 60.875 C-34.44652344 61.68324219 -34.45554687 62.49148437 -34.46484375 63.32421875 C-34.47644531 63.93910156 -34.48804688 64.55398437 -34.5 65.1875 C-35.49 64.8575 -36.48 64.5275 -37.5 64.1875 C-37.58086147 62.39656809 -37.63912702 60.60460372 -37.6875 58.8125 C-37.72230469 57.81476563 -37.75710937 56.81703125 -37.79296875 55.7890625 C-37.69628906 54.93054688 -37.59960938 54.07203125 -37.5 53.1875 C-34.5 51.1875 -34.5 51.1875 -31.8125 50.375 C-24.51078693 47.75740475 -20.6709301 45.34696354 -17.25 38.125 C-13.74493574 29.69570143 -10.83671414 21.23545189 -8.99609375 12.29296875 C-6.17758279 0.33094194 -6.17758279 0.33094194 0 0 Z " fill="#2D2D2D" transform="translate(48.5,70.8125)"/>
<path d="M0 0 C3.3 0 6.6 0 10 0 C10.07689778 4.5369691 10.04937842 8.56929113 9 13 C8.87625 13.99 8.7525 14.98 8.625 16 C7.63409328 20.75635226 6.03800218 23.30799855 2 26 C1.67 26.99 1.34 27.98 1 29 C0.01 29 -0.98 29 -2 29 C-2.16677282 32.41656024 -2.16677282 32.41656024 -2 36 C-1.34 36.66 -0.68 37.32 0 38 C-2.475 38.495 -2.475 38.495 -5 39 C-5.33 39.99 -5.66 40.98 -6 42 C-6.66 42 -7.32 42 -8 42 C-7.34 45.3 -6.68 48.6 -6 52 C-5.01 52 -4.02 52 -3 52 C-3.061875 52.78375 -3.12375 53.5675 -3.1875 54.375 C-3.125625 55.24125 -3.06375 56.1075 -3 57 C-2.01 57.66 -1.02 58.32 0 59 C0.69937532 60.31647119 1.36729133 61.65022151 2 63 C2.66 63.66 3.32 64.32 4 65 C2.71034824 66.37562854 1.37310707 67.70766393 0 69 C-0.66 69 -1.32 69 -2 69 C-2.66 70.32 -3.32 71.64 -4 73 C-4.99 73 -5.98 73 -7 73 C-7.14695313 72.43152344 -7.29390625 71.86304688 -7.4453125 71.27734375 C-7.66960937 70.50519531 -7.89390625 69.73304688 -8.125 68.9375 C-8.33382812 68.18339844 -8.54265625 67.42929688 -8.7578125 66.65234375 C-9.97411543 64.05526926 -11.08144859 62.80826813 -13.046875 60.78515625 C-16.7469517 56.62832851 -17.02231916 52.91641432 -17.125 47.5 C-17.17914063 46.68402344 -17.23328125 45.86804688 -17.2890625 45.02734375 C-17.51888002 39.06166408 -16.20710306 35.9820265 -13 31 C-12.34582066 28.73238016 -12.34582066 28.73238016 -12.125 26.625 C-11.25289523 22.06381486 -9.27268768 19.0796297 -6.59765625 15.33984375 C-3.49813725 10.8004504 0 5.59237567 0 0 Z " fill="#D3D0BF" transform="translate(155,86)"/>
<path d="M0 0 C2.00768931 0.01610055 4.01336683 0.00004934 6.02099609 -0.01904297 C14.27442235 0.00539956 21.61870465 0.95170384 29.50927734 3.39111328 C26.5380949 4.93714528 24.00303974 5.80796149 20.69677734 6.39111328 C17.5386941 6.95224114 14.73730166 7.65464824 11.75927734 8.82861328 C8.50927734 9.39111328 8.50927734 9.39111328 6.74755859 8.40283203 C5.07177734 7.01611328 5.07177734 7.01611328 2.50927734 4.39111328 C1.99365234 4.70048828 1.47802734 5.00986328 0.94677734 5.32861328 C-3.26371396 7.16395565 -7.12966171 7.45632382 -11.67041016 7.23876953 C-20.48041682 6.8435723 -26.40258532 7.96518571 -33.49072266 13.39111328 C-35.20439034 15.1196501 -36.69644532 16.87537525 -38.16650391 18.81298828 C-39.49072266 20.39111328 -39.49072266 20.39111328 -42.49072266 22.26611328 C-45.72985882 24.5605014 -46.19584266 25.75217341 -47.86572266 29.20361328 C-49.30322266 31.59423828 -49.30322266 31.59423828 -51.49072266 33.39111328 C-56.98000974 33.89211964 -62.06846228 33.27335755 -67.49072266 32.39111328 C-66.37066635 29.03094435 -65.11860469 27.70046416 -62.49072266 25.39111328 C-61.83072266 25.39111328 -61.17072266 25.39111328 -60.49072266 25.39111328 C-60.24193359 24.80072266 -59.99314453 24.21033203 -59.73681641 23.60205078 C-52.85440292 11.39062121 -32.59404449 5.32650373 -20.04931641 1.77001953 C-13.36032764 0.14302428 -6.86342498 -0.06527032 0 0 Z " fill="#D5C4A7" transform="translate(88.49072265625,-0.39111328125)"/>
<path d="M0 0 C1.3293457 0.00483398 1.3293457 0.00483398 2.68554688 0.00976562 C3.59755859 0.01814453 4.50957031 0.02652344 5.44921875 0.03515625 C6.38056641 0.03966797 7.31191406 0.04417969 8.27148438 0.04882812 C10.55996248 0.06056391 12.84830683 0.07698262 15.13671875 0.09765625 C11.92116518 10.42883691 6.81827215 18.61540051 0.13671875 27.09765625 C-1.18328125 26.76765625 -2.50328125 26.43765625 -3.86328125 26.09765625 C-3.94578125 25.47890625 -4.02828125 24.86015625 -4.11328125 24.22265625 C-4.67586584 21.91328058 -4.67586584 21.91328058 -6.92578125 20.84765625 C-7.56515625 20.60015625 -8.20453125 20.35265625 -8.86328125 20.09765625 C-8.53328125 18.44765625 -8.20328125 16.79765625 -7.86328125 15.09765625 C-8.85328125 15.09765625 -9.84328125 15.09765625 -10.86328125 15.09765625 C-11.52328125 11.79765625 -12.18328125 8.49765625 -12.86328125 5.09765625 C-12.20328125 5.09765625 -11.54328125 5.09765625 -10.86328125 5.09765625 C-10.53328125 3.77765625 -10.20328125 2.45765625 -9.86328125 1.09765625 C-6.51236354 0.34402573 -3.43218313 -0.02214312 0 0 Z " fill="#4B4B49" transform="translate(159.86328125,122.90234375)"/>
<path d="M0 0 C3.5 0.1875 3.5 0.1875 5.5 1.1875 C6.14746901 3.76252581 6.6719291 6.26521916 7.125 8.875 C7.2590625 9.58333984 7.393125 10.29167969 7.53125 11.02148438 C8.11957257 14.27226674 8.49984005 17.20114375 8.4609375 20.51953125 C8.26211714 23.41834046 8.26211714 23.41834046 10.5 26.1875 C10.625 29.375 10.625 29.375 10.5 32.1875 C6.51368474 31.57868094 3.42604769 30.3353051 -0.125 28.4375 C-1.06601562 27.94765625 -2.00703125 27.4578125 -2.9765625 26.953125 C-5.85095932 24.94193713 -7.04745864 23.36493422 -8.5 20.1875 C-9.58613492 13.66004207 -8.24403463 8.09772843 -5.5 2.1875 C-3.5 0.1875 -3.5 0.1875 0 0 Z " fill="#F0E8E2" transform="translate(48.5,70.8125)"/>
<path d="M0 0 C0.66 0 1.32 0 2 0 C2.07476562 1.21816406 2.14953125 2.43632813 2.2265625 3.69140625 C2.66647828 14.7051947 2.66647828 14.7051947 8.53515625 23.4765625 C11.2802361 26.33144554 12.02878429 30.2429287 13 34 C9.56638098 37.63559661 6.2026393 40.36113346 2 43 C0.63823078 41.35648543 -0.68962066 39.68477344 -2 38 C-2.52464844 37.32710937 -3.04929688 36.65421875 -3.58984375 35.9609375 C-5.64446903 31.64679356 -5.60835221 27.53746554 -5.75 22.8125 C-5.79253906 21.89791016 -5.83507812 20.98332031 -5.87890625 20.04101562 C-6.14773261 13.29546523 -6.14773261 13.29546523 -5 11 C-4.34 11 -3.68 11 -3 11 C-3.33 10.01 -3.66 9.02 -4 8 C-3.22265625 5.95703125 -3.22265625 5.95703125 -2.0625 3.8125 C-1.68222656 3.09707031 -1.30195313 2.38164063 -0.91015625 1.64453125 C-0.45962891 0.83048828 -0.45962891 0.83048828 0 0 Z " fill="#111111" transform="translate(136,125)"/>
<path d="M0 0 C0.33 0 0.66 0 1 0 C0.11359489 16.35264599 0.11359489 16.35264599 -5.1875 22.5625 C-5.785625 23.036875 -6.38375 23.51125 -7 24 C-5.02 23.01 -3.04 22.02 -1 21 C-0.6089061 30.97289448 -0.6089061 30.97289448 -3 35 C-4.485 35.495 -4.485 35.495 -6 36 C-6.66 34.68 -7.32 33.36 -8 32 C-10.97722547 32.70333538 -13.85256543 33.58248537 -16.75 34.5625 C-17.54921875 34.83191406 -18.3484375 35.10132813 -19.171875 35.37890625 C-19.77515625 35.58386719 -20.3784375 35.78882813 -21 36 C-21.48607595 28.58734177 -21.48607595 28.58734177 -19.5 26.1875 C-16.06497093 24.55586119 -12.59070989 23.25674846 -9 22 C-9 20.68 -9 19.36 -9 18 C-14.28978183 17.50792727 -15.9986113 18.71680927 -20 22 C-22.8125 22.25 -22.8125 22.25 -25 22 C-24.06409496 20.8944811 -23.12620142 19.79064547 -22.1875 18.6875 C-21.40439453 17.76517578 -21.40439453 17.76517578 -20.60546875 16.82421875 C-20.07566406 16.22222656 -19.54585938 15.62023437 -19 15 C-18.33484375 14.14921875 -18.33484375 14.14921875 -17.65625 13.28125 C-15.22838003 11.40308644 -13.33033274 11.70598826 -10.3125 11.8125 C-9.31863281 11.83957031 -8.32476562 11.86664063 -7.30078125 11.89453125 C-6.16189453 11.94673828 -6.16189453 11.94673828 -5 12 C-6.258125 11.855625 -7.51625 11.71125 -8.8125 11.5625 C-11.42667123 11.26251314 -13.47439892 10.84186703 -16 10 C-15.18015625 9.61328125 -14.3603125 9.2265625 -13.515625 8.828125 C-12.43796875 8.30734375 -11.3603125 7.7865625 -10.25 7.25 C-9.18265625 6.73953125 -8.1153125 6.2290625 -7.015625 5.703125 C-4.12989998 4.0733632 -2.23997464 2.40744938 0 0 Z " fill="#E1BE9E" transform="translate(142,54)"/>
<path d="M0 0 C3.77001757 0.40978452 5.80106814 0.86737876 9 3 C9 3.99 9 4.98 9 6 C8.26394531 6.24234375 7.52789062 6.4846875 6.76953125 6.734375 C1.51668604 8.53852263 -2.92342803 10.06399948 -7 14 C-6.67 14 -6.34 14 -6 14 C-6 15.65 -6 17.3 -6 19 C-5.13117188 18.6390625 -4.26234375 18.278125 -3.3671875 17.90625 C-2.21476562 17.4421875 -1.06234375 16.978125 0.125 16.5 C1.26195313 16.0359375 2.39890625 15.571875 3.5703125 15.09375 C6.97584402 14.0077035 9.45629428 13.66324434 13 14 C14.0194119 14.98020375 15.02246356 15.97803008 16 17 C17.91466367 16.87822312 17.91466367 16.87822312 20 16 C21.0725 15.649375 22.145 15.29875 23.25 14.9375 C24.1575 14.628125 25.065 14.31875 26 14 C26.495 14.99 26.495 14.99 27 16 C25.87980469 16.55429688 24.75960937 17.10859375 23.60546875 17.6796875 C22.13275962 18.41135191 20.66010628 19.14312861 19.1875 19.875 C18.44951172 20.23980469 17.71152344 20.60460937 16.95117188 20.98046875 C16.23896484 21.33496094 15.52675781 21.68945312 14.79296875 22.0546875 C14.1383667 22.37937012 13.48376465 22.70405273 12.80932617 23.03857422 C10.75347202 24.09255672 10.75347202 24.09255672 8 26 C5.51953125 25.9765625 5.51953125 25.9765625 2.8125 25.625 C1.91144531 25.51414062 1.01039062 25.40328125 0.08203125 25.2890625 C-0.60503906 25.19367188 -1.29210937 25.09828125 -2 25 C-2 24.34 -2 23.68 -2 23 C-2.99 23 -3.98 23 -5 23 C-5 22.01 -5 21.02 -5 20 C-6.98 19.67 -8.96 19.34 -11 19 C-11 22.3 -11 25.6 -11 29 C-11.33 29 -11.66 29 -12 29 C-12.086985 25.22931168 -12.14038579 21.45888068 -12.1875 17.6875 C-12.21263672 16.61564453 -12.23777344 15.54378906 -12.26367188 14.43945312 C-12.27333984 13.41142578 -12.28300781 12.38339844 -12.29296875 11.32421875 C-12.3086792 10.37635498 -12.32438965 9.42849121 -12.34057617 8.4519043 C-11.94475643 5.60228592 -11.22175281 4.75023895 -9 3 C-7.02 3.66 -5.04 4.32 -3 5 C-2.690625 4.360625 -2.38125 3.72125 -2.0625 3.0625 C-1 1 -1 1 0 0 Z " fill="#EDDCCC" transform="translate(85,74)"/>
<path d="M0 0 C3.04424687 4.56637031 2.12783166 8.56715459 2 14 C-2.62 14 -7.24 14 -12 14 C-11.37158027 17.9714169 -11.37158027 17.9714169 -9 20 C-9.99 20 -10.98 20 -12 20 C-12.33 21.98 -12.66 23.96 -13 26 C-13.99 26.33 -14.98 26.66 -16 27 C-15.34 23.04 -14.68 19.08 -14 15 C-16.6296875 15.3403125 -16.6296875 15.3403125 -19.3125 15.6875 C-24.50748848 16.35979263 -24.50748848 16.35979263 -26.85546875 14.64453125 C-28 13 -28 13 -28 11 C-24.535 10.505 -24.535 10.505 -21 10 C-20.5978125 8.7934375 -20.5978125 8.7934375 -20.1875 7.5625 C-19.795625 6.716875 -19.40375 5.87125 -19 5 C-18.01 4.67 -17.02 4.34 -16 4 C-16 4.66 -16 5.32 -16 6 C-10.53262809 4.25192871 -5.24175152 2.34205919 0 0 Z " fill="#A8A195" transform="translate(179,71)"/>
<path d="M0 0 C0.33 0 0.66 0 1 0 C1.14695312 1.01320313 1.14695312 1.01320313 1.296875 2.046875 C2.35877437 8.99459996 2.35877437 8.99459996 7 14 C8.63978318 15.04349839 10.30094366 16.05607981 12 17 C11.8359375 18.87890625 11.8359375 18.87890625 11 21 C8.27862959 22.23658362 5.53727831 22.96238148 2.6640625 23.77734375 C-0.64605379 25.29650269 -1.34184295 26.82428986 -3 30 C-5.46747072 33.04762008 -8.4954154 34.38321988 -12 36.0625 C-15.16667026 37.58762428 -18.07249392 39.04832928 -21 41 C-23.6875 41.125 -23.6875 41.125 -26 41 C-25.67 41.99 -25.34 42.98 -25 44 C-24.93259135 45.56118428 -24.91485544 47.1250252 -24.9375 48.6875 C-24.94652344 49.49574219 -24.95554687 50.30398437 -24.96484375 51.13671875 C-24.97644531 51.75160156 -24.98804688 52.36648437 -25 53 C-25.99 52.67 -26.98 52.34 -28 52 C-28.08086147 50.20906809 -28.13912702 48.41710372 -28.1875 46.625 C-28.22230469 45.62726563 -28.25710937 44.62953125 -28.29296875 43.6015625 C-28.19628906 42.74304688 -28.09960938 41.88453125 -28 41 C-25 39 -25 39 -22.3125 38.1875 C-15.01078693 35.56990475 -11.1709301 33.15946354 -7.75 25.9375 C-4.26819916 17.56030615 -0.8268609 9.09546995 0 0 Z " fill="#0C0C0C" transform="translate(39,83)"/>
<path d="M0 0 C6.6 0.33 13.2 0.66 20 1 C19 9 19 9 18 13 C10.08 13 2.16 13 -6 13 C-4 7 -4 7 0 0 Z " fill="#E6DEC4" transform="translate(13,41)"/>
<path d="M0 0 C1 3 1 3 1 6 C1.99 5.01 2.98 4.02 4 3 C3.73574219 3.78890625 3.47148438 4.5778125 3.19921875 5.390625 C1.72128671 9.83886347 0.25499571 14.29014268 -1.1875 18.75 C-1.47302734 19.61238281 -1.75855469 20.47476563 -2.05273438 21.36328125 C-2.31763672 22.18699219 -2.58253906 23.01070312 -2.85546875 23.859375 C-3.22128052 24.98037598 -3.22128052 24.98037598 -3.59448242 26.12402344 C-4.22179729 28.07815159 -4.22179729 28.07815159 -3 30 C-3.875 32.5 -3.875 32.5 -6 35 C-10.91130128 36.89339795 -15.78318191 37.08280664 -21 37 C-19.73412642 34.41412997 -18.46254151 31.83134499 -17.1875 29.25 C-16.65286133 28.15558594 -16.65286133 28.15558594 -16.10742188 27.0390625 C-14.32469483 23.44089782 -12.58911661 20.10367291 -10 17 C-10.58929011 20.03063487 -11.25044562 23.0017825 -12 26 C-10.35 22.37 -8.7 18.74 -7 15 C-6.34 15 -5.68 15 -5 15 C-3.35 10.05 -1.7 5.1 0 0 Z " fill="#5B6566" transform="translate(121,143)"/>
<path d="M0 0 C9.98084367 1.43622341 19.88072642 9.14848671 27 16 C27 16.66 27 17.32 27 18 C27.99 18.33 28.98 18.66 30 19 C31.88135214 20.86545339 33.37570485 22.89280629 35 25 C35 25.33 35 25.66 35 26 C31.7 26 28.4 26 25 26 C25 25.01 25 24.02 25 23 C23.93072266 22.75830078 23.93072266 22.75830078 22.83984375 22.51171875 C16.79074207 20.79387157 13.53875538 19.16625037 10.25 13.6875 C9.71761719 12.72457031 9.18523437 11.76164062 8.63671875 10.76953125 C6.61949767 7.35614284 4.18631808 4.90743067 1.28515625 2.2421875 C0.86105469 1.83226562 0.43695313 1.42234375 0 1 C0 0.67 0 0.34 0 0 Z " fill="#BAA68C" transform="translate(126,7)"/>
<path d="M0 0 C1.14401851 3.43205554 0.83052555 4.26424806 -0.25 7.60546875 C-0.5284375 8.50716797 -0.806875 9.40886719 -1.09375 10.33789062 C-1.69227843 12.21990137 -2.2963435 14.10016134 -2.90625 15.97851562 C-5.14846818 23.2916763 -5.15894857 28.59789063 -3 36 C-5.96390838 37.48195419 -8.72443978 37.05746597 -12 37 C-12.99 37 -13.98 37 -15 37 C-14.67 34.36 -14.34 31.72 -14 29 C-17.11332248 29.66868314 -17.11332248 29.66868314 -18.1875 32.0625 C-18.455625 32.701875 -18.72375 33.34125 -19 34 C-19 30.65399937 -18.54040834 29.97685525 -16.625 27.375 C-16.18414062 26.76398437 -15.74328125 26.15296875 -15.2890625 25.5234375 C-14 24 -14 24 -12 23 C-11.62875 21.7625 -11.2575 20.525 -10.875 19.25 C-8.88041238 12.80914413 -4.81947554 4.81947554 0 0 Z " fill="#100F0F" transform="translate(57,35)"/>
<path d="M0 0 C2.29013653 3.4352048 2.17842973 4.985331 2 9 C5.465 10.98 5.465 10.98 9 13 C8.52343588 14.79236067 8.04366502 16.58386897 7.5625 18.375 C7.29566406 19.37273437 7.02882813 20.37046875 6.75390625 21.3984375 C6 24 6 24 5 26 C6.65 26 8.3 26 10 26 C10.433125 24.2984375 10.433125 24.2984375 10.875 22.5625 C11.24625 21.386875 11.6175 20.21125 12 19 C12.66 18.67 13.32 18.34 14 18 C13.78601769 21.23044257 13.3581682 24.04458529 12 27 C9.18425138 28.96124356 6.27908051 30.03516767 3 31 C3.350625 32.19625 3.70125 33.3925 4.0625 34.625 C5.00313821 38.38755283 5.08290796 41.20982214 4 45 C3.34 45.66 2.68 46.32 2 47 C1.67 46.34 1.34 45.68 1 45 C-0.32 48.96 -1.64 52.92 -3 57 C-3.99 57 -4.98 57 -6 57 C-5.54554036 55.58208592 -5.08625056 54.16571954 -4.625 52.75 C-4.36976562 51.96109375 -4.11453125 51.1721875 -3.8515625 50.359375 C-3 48 -3 48 -1.9609375 46.078125 C0.49466212 40.76764126 0.13458873 34.82779089 0.09765625 29.1015625 C0.0962413 28.26660248 0.09482635 27.43164246 0.09336853 26.57138062 C0.08780174 23.92254958 0.07525547 21.2738052 0.0625 18.625 C0.0574807 16.82161581 0.05291855 15.01823029 0.04882812 13.21484375 C0.0378432 8.80986279 0.02060163 4.40494606 0 0 Z " fill="#1C1C1D" transform="translate(78,122)"/>
<path d="M0 0 C0 1.98 0 3.96 0 6 C-0.66 6 -1.32 6 -2 6 C-1.01 7.32 -0.02 8.64 1 10 C-0.76462037 14.04866529 -2.56776302 17.17134568 -6 20 C-11.27148903 21.04076382 -16.77670885 19.9154868 -22 19 C-20.87994369 15.63983107 -19.62788203 14.30935087 -17 12 C-16.34 12 -15.68 12 -15 12 C-14.64228516 11.12408203 -14.64228516 11.12408203 -14.27734375 10.23046875 C-12.73718789 7.54108344 -11.02702092 6.17808973 -8.5625 4.3125 C-7.78003906 3.71050781 -6.99757813 3.10851562 -6.19140625 2.48828125 C-4.21806326 1.14809644 -2.49060657 0 0 0 Z " fill="#BB9F7C" transform="translate(43,13)"/>
<path d="M0 0 C1.3293457 0.00483398 1.3293457 0.00483398 2.68554688 0.00976562 C3.59755859 0.01814453 4.50957031 0.02652344 5.44921875 0.03515625 C6.38056641 0.03966797 7.31191406 0.04417969 8.27148438 0.04882812 C10.55996248 0.06056391 12.84830683 0.07698262 15.13671875 0.09765625 C14.80671875 1.74765625 14.47671875 3.39765625 14.13671875 5.09765625 C11.49671875 5.09765625 8.85671875 5.09765625 6.13671875 5.09765625 C6.46671875 6.08765625 6.79671875 7.07765625 7.13671875 8.09765625 C6.14671875 8.09765625 5.15671875 8.09765625 4.13671875 8.09765625 C4.46671875 6.11765625 4.79671875 4.13765625 5.13671875 2.09765625 C3.48671875 2.09765625 1.83671875 2.09765625 0.13671875 2.09765625 C0.13671875 2.75765625 0.13671875 3.41765625 0.13671875 4.09765625 C0.79671875 4.42765625 1.45671875 4.75765625 2.13671875 5.09765625 C1.51796875 4.91203125 0.89921875 4.72640625 0.26171875 4.53515625 C-1.90488303 3.86079449 -1.90488303 3.86079449 -3.86328125 5.09765625 C-4.93938665 8.67300644 -4.93938665 8.67300644 -3.86328125 12.09765625 C-4.85328125 12.09765625 -5.84328125 12.09765625 -6.86328125 12.09765625 C-6.86328125 14.07765625 -6.86328125 16.05765625 -6.86328125 18.09765625 C-5.93515625 18.20078125 -5.00703125 18.30390625 -4.05078125 18.41015625 C-0.83073767 19.10467545 0.1625174 19.57506564 2.13671875 22.09765625 C1.14671875 24.57265625 1.14671875 24.57265625 0.13671875 27.09765625 C-1.18328125 26.76765625 -2.50328125 26.43765625 -3.86328125 26.09765625 C-3.94578125 25.47890625 -4.02828125 24.86015625 -4.11328125 24.22265625 C-4.67586584 21.91328058 -4.67586584 21.91328058 -6.92578125 20.84765625 C-7.56515625 20.60015625 -8.20453125 20.35265625 -8.86328125 20.09765625 C-8.53328125 18.44765625 -8.20328125 16.79765625 -7.86328125 15.09765625 C-8.85328125 15.09765625 -9.84328125 15.09765625 -10.86328125 15.09765625 C-11.52328125 11.79765625 -12.18328125 8.49765625 -12.86328125 5.09765625 C-12.20328125 5.09765625 -11.54328125 5.09765625 -10.86328125 5.09765625 C-10.53328125 3.77765625 -10.20328125 2.45765625 -9.86328125 1.09765625 C-6.51236354 0.34402573 -3.43218313 -0.02214312 0 0 Z " fill="#555453" transform="translate(159.86328125,122.90234375)"/>
<path d="M0 0 C2.64 0 5.28 0 8 0 C7.61349323 11.80778195 4.97688128 22.29970525 0 33 C-0.66 32.67 -1.32 32.34 -2 32 C-3.41433766 27.04981818 -2.40741022 23.83797262 -1 19 C-1.33010483 17.33269088 -1.66385658 15.66610218 -2 14 C-1.94166863 11.93453911 -1.81414667 9.870109 -1.625 7.8125 C-1.48964844 6.24435547 -1.48964844 6.24435547 -1.3515625 4.64453125 C-1 2 -1 2 0 0 Z " fill="#EEEEED" transform="translate(5,85)"/>
<path d="M0 0 C6.38932496 3.62637363 6.38932496 3.62637363 8 6 C8.25 9.625 8.25 9.625 8 13 C7.67 13.33 7.34 13.66 7 14 C11.455 15.98 11.455 15.98 16 18 C15.67 19.65 15.34 21.3 15 23 C14.34 22.67 13.68 22.34 13 22 C12.93941406 22.69867188 12.87882812 23.39734375 12.81640625 24.1171875 C12.73261719 25.02726562 12.64882812 25.93734375 12.5625 26.875 C12.48128906 27.77992188 12.40007812 28.68484375 12.31640625 29.6171875 C12 32 12 32 11 34 C9.35 34 7.7 34 6 34 C6.31182069 32.58318366 6.62448737 31.16655349 6.9375 29.75 C7.11152344 28.96109375 7.28554687 28.1721875 7.46484375 27.359375 C7.947556 25.23121297 8.46163178 23.11467158 9 21 C8.030625 20.525625 7.06125 20.05125 6.0625 19.5625 C3 18 3 18 2 17 C2.020625 15.948125 2.04125 14.89625 2.0625 13.8125 C2.00059975 10.03658491 1.25128132 7.51922872 0 4 C0 2.68 0 1.36 0 0 Z " fill="#D5D6DB" transform="translate(77,114)"/>
<path d="M0 0 C0.72445312 0.47050781 1.44890625 0.94101563 2.1953125 1.42578125 C9.40010298 6.06820817 9.40010298 6.06820817 17 10 C17 10.66 17 11.32 17 12 C19.64 11.34 22.28 10.68 25 10 C24 11.375 24 11.375 22 13 C20.72125 13.144375 19.4425 13.28875 18.125 13.4375 C15.94403382 13.76177084 15.94403382 13.76177084 14 15 C11.76808787 18.81774444 10.33742732 22.79481985 9 27 C8.01 27 7.02 27 6 27 C6 25.68 6 24.36 6 23 C5.67 23 5.34 23 5 23 C5 20.69 5 18.38 5 16 C5.99 15.67 6.98 15.34 8 15 C8 14.01 8 13.02 8 12 C3.545 10.02 3.545 10.02 -1 8 C-0.34 7.67 0.32 7.34 1 7 C0.67 4.69 0.34 2.38 0 0 Z " fill="#C5C6CD" transform="translate(84,120)"/>
<path d="M0 0 C3.77001757 0.40978452 5.80106814 0.86737876 9 3 C9 3.99 9 4.98 9 6 C7.91332031 6.36351563 7.91332031 6.36351563 6.8046875 6.734375 C-1.09250466 9.45190025 -1.09250466 9.45190025 -8 14 C-8 14.99 -8 15.98 -8 17 C-8.33 17.99 -8.66 18.98 -9 20 C-9.66 19.67 -10.32 19.34 -11 19 C-11 22.3 -11 25.6 -11 29 C-11.33 29 -11.66 29 -12 29 C-12.086985 25.22931168 -12.14038579 21.45888068 -12.1875 17.6875 C-12.21263672 16.61564453 -12.23777344 15.54378906 -12.26367188 14.43945312 C-12.27333984 13.41142578 -12.28300781 12.38339844 -12.29296875 11.32421875 C-12.3086792 10.37635498 -12.32438965 9.42849121 -12.34057617 8.4519043 C-11.94475643 5.60228592 -11.22175281 4.75023895 -9 3 C-7.02 3.66 -5.04 4.32 -3 5 C-2.690625 4.360625 -2.38125 3.72125 -2.0625 3.0625 C-1 1 -1 1 0 0 Z " fill="#F0E3D7" transform="translate(85,74)"/>
<path d="M0 0 C0.3910939 9.97289448 0.3910939 9.97289448 -2 14 C-2.99 14.33 -3.98 14.66 -5 15 C-5.66 13.68 -6.32 12.36 -7 11 C-9.97722547 11.70333538 -12.85256543 12.58248537 -15.75 13.5625 C-16.54921875 13.83191406 -17.3484375 14.10132812 -18.171875 14.37890625 C-18.77515625 14.58386719 -19.3784375 14.78882812 -20 15 C-20.48325673 7.63033487 -20.48325673 7.63033487 -18.5625 5.125 C-13.92477838 3.08892709 -9.06485743 2 -4 2 C-1 0 -1 0 0 0 Z " fill="#D8B699" transform="translate(141,75)"/>
<path d="M0 0 C2 2 2 2 2.23046875 4.4609375 C2.20919922 5.90339844 2.20919922 5.90339844 2.1875 7.375 C2.17783203 8.80972656 2.17783203 8.80972656 2.16796875 10.2734375 C2 13 2 13 1 17 C-3.29 17 -7.58 17 -12 17 C-12.33 15.35 -12.66 13.7 -13 12 C-11.35 11.67 -9.7 11.34 -8 11 C-8.33 8.69 -8.66 6.38 -9 4 C-7.88625 3.525625 -6.7725 3.05125 -5.625 2.5625 C-3.73289006 1.74693537 -1.84287291 0.92143645 0 0 Z " fill="#0B0B0B" transform="translate(179,93)"/>
<path d="M0 0 C3.7766665 -0.48384339 7.24170413 -0.6908253 11 0 C13.73841069 2.26734193 15.47636494 4.79843772 17 8 C17 8.66 17 9.32 17 10 C15.73542969 10.01417969 14.47085938 10.02835938 13.16796875 10.04296875 C11.50777588 10.08986685 9.84762073 10.13811426 8.1875 10.1875 C6.93743164 10.19620117 6.93743164 10.19620117 5.66210938 10.20507812 C3.33530174 10.28917961 1.25372062 10.41026791 -1 11 C-3.15580017 13.3768061 -3.15580017 13.3768061 -4 16 C-5 14 -5 14 -4.00390625 10.7421875 C-3.53110016 9.4502948 -3.05028031 8.16131362 -2.5625 6.875 C-2.31951172 6.21628906 -2.07652344 5.55757812 -1.82617188 4.87890625 C-1.22421679 3.25008662 -0.61297588 1.62470425 0 0 Z " fill="#A38D74" transform="translate(151,33)"/>
<path d="M0 0 C1 2 1 2 0.171875 4.609375 C-3.157255 11.96272808 -6.25252557 15.62261636 -13.51171875 19.20703125 C-16 20 -16 20 -19 19 C-16.5632287 9.91748879 -16.5632287 9.91748879 -12.73046875 7.66796875 C-10.48905632 6.95142273 -8.31993222 6.38665537 -6 6 C-6.33 6 -6.66 6 -7 6 C-8.33568021 5.67619874 -9.66923011 5.34342449 -11 5 C-10.37351562 4.72285156 -9.74703125 4.44570312 -9.1015625 4.16015625 C-8.28429687 3.79792969 -7.46703125 3.43570313 -6.625 3.0625 C-5.81289062 2.70285156 -5.00078125 2.34320313 -4.1640625 1.97265625 C-2.76316215 1.3430097 -1.37374716 0.68687358 0 0 Z " fill="#181819" transform="translate(112,126)"/>
<path d="M0 0 C0.66 1.32 1.32 2.64 2 4 C2.99 4.825 3.98 5.65 5 6.5 C9.19693095 9.99744246 9.19693095 9.99744246 10 13 C9.06367864 15.60089267 8.10321573 17.77635417 6.8125 20.1875 C6.49474609 20.82880859 6.17699219 21.47011719 5.84960938 22.13085938 C3.40506417 26.86497861 3.40506417 26.86497861 0 28 C0 18.76 0 9.52 0 0 Z " fill="#050505" transform="translate(146,76)"/>
<path d="M0 0 C1.4370809 -0.05422947 2.87475462 -0.09289723 4.3125 -0.125 C5.11300781 -0.14820313 5.91351563 -0.17140625 6.73828125 -0.1953125 C9 0 9 0 12 2 C12.69937532 3.31647119 13.36729133 4.65022151 14 6 C14.66 6.66 15.32 7.32 16 8 C14.71034824 9.37562854 13.37310707 10.70766393 12 12 C11.34 12 10.68 12 10 12 C9.34 13.32 8.68 14.64 8 16 C7.01 16 6.02 16 5 16 C4.81824219 15.39671875 4.63648438 14.7934375 4.44921875 14.171875 C3.08599016 9.83750718 1.78483868 6.62029029 -1 3 C-0.67 2.01 -0.34 1.02 0 0 Z " fill="#E1DFD3" transform="translate(143,143)"/>
<path d="M0 0 C1.65 0.33 3.3 0.66 5 1 C6.61295783 5.23401429 7 8.50930032 7 13 C7.91257306 15.78566059 7.91257306 15.78566059 9 18 C7.02 18.33 5.04 18.66 3 19 C3 18.34 3 17.68 3 17 C2.21625 16.814375 1.4325 16.62875 0.625 16.4375 C-2 15 -2 15 -3.625 11.75 C-4 8 -4 8 -3 6.20703125 C-1.625 4.5625 -1.625 4.5625 1 2 C0.67 1.34 0.34 0.68 0 0 Z " fill="#93887E" transform="translate(47,75)"/>
<path d="M0 0 C5.94 0 11.88 0 18 0 C19.32 2.64 20.64 5.28 22 8 C19.69 8 17.38 8 15 8 C15 8.66 15 9.32 15 10 C13.35 10 11.7 10 10 10 C10 8.35 10 6.7 10 5 C8.081875 5.061875 8.081875 5.061875 6.125 5.125 C3.9453125 5.1953125 3.9453125 5.1953125 2 5 C1.34 4.34 0.68 3.68 0 3 C0 2.01 0 1.02 0 0 Z " fill="#DCD2B6" transform="translate(151,43)"/>
<path d="M0 0 C0.66 0 1.32 0 2 0 C5.33905794 7.43699268 6.0890268 14.95015024 7 23 C7.20605767 24.64611979 7.41381668 26.29202993 7.625 27.9375 C7.74875 28.948125 7.8725 29.95875 8 31 C7.34 31.33 6.68 31.66 6 32 C-1.32989263 23.48208196 -1.66387608 12.81050827 -1 2 C-0.67 1.34 -0.34 0.68 0 0 Z " fill="#E5E4DE" transform="translate(131,136)"/>
<path d="M0 0 C0.99 0 1.98 0 3 0 C3.33 1.32 3.66 2.64 4 4 C3.01 4 2.02 4 1 4 C1.185625 4.5775 1.37125 5.155 1.5625 5.75 C2.04023546 8.20692525 1.75729364 9.64397534 1 12 C0.01 12 -0.98 12 -2 12 C-2 13.98 -2 15.96 -2 18 C-2.99 18 -3.98 18 -5 18 C-5.33 18.99 -5.66 19.98 -6 21 C-5.34 21.33 -4.68 21.66 -4 22 C-3.375 24.0625 -3.375 24.0625 -3 26 C-6.00419641 27.0013988 -8.87709365 27.51421457 -12 28 C-12 29.32 -12 30.64 -12 32 C-12.99 31.67 -13.98 31.34 -15 31 C-14.91291331 29.54054712 -14.80473093 28.08234132 -14.6875 26.625 C-14.62949219 25.81289062 -14.57148438 25.00078125 -14.51171875 24.1640625 C-14 22 -14 22 -11 20 C-9.67432801 19.31822584 -8.34246312 18.64808564 -7 18 C-7.33 17.34 -7.66 16.68 -8 16 C-7.01 15.34 -6.02 14.68 -5 14 C-5.33 13.34 -5.66 12.68 -6 12 C-5.34 11.34 -4.68 10.68 -4 10 C-4 9.01 -4 8.02 -4 7 C-3.34 6.34 -2.68 5.68 -2 5 C-1.29289322 3.35008418 -0.62056011 1.68437744 0 0 Z " fill="#5D5C5A" transform="translate(167,91)"/>
<path d="M0 0 C1.87939453 -0.34057617 1.87939453 -0.34057617 4.1328125 -0.29296875 C4.93847656 -0.28330078 5.74414062 -0.27363281 6.57421875 -0.26367188 C7.41597656 -0.23853516 8.25773437 -0.21339844 9.125 -0.1875 C9.97449219 -0.17396484 10.82398438 -0.16042969 11.69921875 -0.14648438 C13.79974837 -0.11108219 15.89995293 -0.05727401 18 0 C17.34 2.31 16.68 4.62 16 7 C9.4 7 2.8 7 -4 7 C-2 3 -2 3 0 0 Z " fill="#B59E82" transform="translate(18,34)"/>
<path d="M0 0 C6.6 0.33 13.2 0.66 20 1 C19.67 2.98 19.34 4.96 19 7 C16.62492145 7.02719556 14.25016036 7.04693247 11.875 7.0625 C10.87726562 7.07506836 10.87726562 7.07506836 9.859375 7.08789062 C5.79318646 7.10782292 1.9879908 6.78890161 -2 6 C-1.49396008 3.83125748 -1.00016187 2.00032373 0 0 Z " fill="#EDE9DD" transform="translate(13,41)"/>
<path d="M0 0 C2.03833424 1.2739589 4.03852126 2.61061923 6 4 C6 4.66 6 5.32 6 6 C6.99 6.33 7.98 6.66 9 7 C10.88135214 8.86545339 12.37570485 10.89280629 14 13 C14 13.33 14 13.66 14 14 C10.7 14 7.4 14 4 14 C4 13.01 4 12.02 4 11 C-0.95 9.02 -0.95 9.02 -6 7 C-4.11656068 3.23312136 -3.30867531 2.20578354 0 0 Z " fill="#D1BD9F" transform="translate(147,19)"/>
<path d="M0 0 C1.65 0 3.3 0 5 0 C3.8141763 3.37503669 2.72426311 5.64722731 0 8 C0 7.01 0 6.02 0 5 C-0.37125 5.78375 -0.7425 6.5675 -1.125 7.375 C-3.46115822 10.6456215 -5.14309946 11.11612696 -9 12 C-9.99 12 -10.98 12 -12 12 C-12.66 10.68 -13.32 9.36 -14 8 C-14.66 8 -15.32 8 -16 8 C-16.66 6.35 -17.32 4.7 -18 3 C-16.02 2.67 -14.04 2.34 -12 2 C-12.99 3.32 -13.98 4.64 -15 6 C-13.865625 5.67 -12.73125 5.34 -11.5625 5 C-7.00204151 3.84152933 -2.67838994 3.80506709 2 4 C2 3.01 2 2.02 2 1 C1.34 0.67 0.68 0.34 0 0 Z " fill="#B38D93" transform="translate(115,107)"/>
<path d="M0 0 C0.66 0 1.32 0 2 0 C2.4125 1.051875 2.825 2.10375 3.25 3.1875 C6.30053753 8.70538407 12.34187072 10.06947476 18 12 C15.18045442 14.89138113 12.6613124 17.2162837 9 19 C6 18 6 18 4.90234375 16.25 C2.61193724 10.90880911 1.02800662 5.72166843 0 0 Z " fill="#E8D6C7" transform="translate(70,55)"/>
<path d="M0 0 C3.63 0 7.26 0 11 0 C11 0.33 11 0.66 11 1 C9.02 1 7.04 1 5 1 C5 1.99 5 2.98 5 4 C7.97851562 3.90234375 7.97851562 3.90234375 10.95703125 3.8046875 C13 4 13 4 16 6 C13.69 6.66 11.38 7.32 9 8 C9 8.66 9 9.32 9 10 C5.7 10.66 2.4 11.32 -1 12 C-1.66 11.01 -2.32 10.02 -3 9 C-2.35690659 5.84448231 -1.1401683 3.02583126 0 0 Z " fill="#8C867B" transform="translate(5,57)"/>
<path d="M0 0 C0.33 0.66 0.66 1.32 1 2 C0.22265625 3.7265625 0.22265625 3.7265625 -0.9375 5.625 C-1.618125 6.73875 -2.29875 7.8525 -3 9 C-3.33 9 -3.66 9 -4 9 C-3.98952637 9.95890137 -3.97905273 10.91780273 -3.96826172 11.90576172 C-3.93210672 15.45780719 -3.90911607 19.00983634 -3.89013672 22.56201172 C-3.88006882 24.10045098 -3.86641354 25.63887107 -3.84912109 27.17724609 C-3.82490683 29.38644133 -3.81352509 31.59538395 -3.8046875 33.8046875 C-3.79436493 34.49432587 -3.78404236 35.18396423 -3.77340698 35.89450073 C-3.77300522 37.59800906 -3.87808974 39.30085943 -4 41 C-4.66 41.66 -5.32 42.32 -6 43 C-7.91219585 41.08780415 -7.24435298 37.66354496 -7.31640625 35.12109375 C-7.33718735 34.4344313 -7.35796844 33.74776886 -7.37937927 33.04029846 C-7.44494143 30.83947065 -7.50379015 28.63852025 -7.5625 26.4375 C-7.60567892 24.94855486 -7.649293 23.45962227 -7.69335938 21.97070312 C-7.8006293 18.31393447 -7.90187772 14.65702682 -8 11 C-8.33 12.98 -8.66 14.96 -9 17 C-9.33 17 -9.66 17 -10 17 C-10.33 15.35 -10.66 13.7 -11 12 C-11.78375 12.515625 -12.5675 13.03125 -13.375 13.5625 C-14.24125 14.036875 -15.1075 14.51125 -16 15 C-16.66 14.67 -17.32 14.34 -18 14 C-17.21625 13.38125 -16.4325 12.7625 -15.625 12.125 C-13.03162353 10.10141339 -13.03162353 10.10141339 -11 8 C-11 8.66 -11 9.32 -11 10 C-7.87802522 8.6910428 -7.87802522 8.6910428 -6 6 C-5.01 5.67 -4.02 5.34 -3 5 C-1.30117552 2.50240018 -1.30117552 2.50240018 0 0 Z " fill="#4F4F4F" transform="translate(151,64)"/>
<path d="M0 0 C0.33 0 0.66 0 1 0 C1.07347656 1.71509766 1.07347656 1.71509766 1.1484375 3.46484375 C1.22345189 4.95575473 1.29900028 6.44663892 1.375 7.9375 C1.4059375 8.69224609 1.436875 9.44699219 1.46875 10.22460938 C1.5726315 12.15507395 1.77895614 14.07942081 2 16 C2.66 16.33 3.32 16.66 4 17 C3.34 17.33 2.68 17.66 2 18 C2.350625 19.19625 2.70125 20.3925 3.0625 21.625 C4.00313821 25.38755283 4.08290796 28.20982214 3 32 C2.34 32.66 1.68 33.32 1 34 C0.67 33.34 0.34 32.68 0 32 C-1.32 35.96 -2.64 39.92 -4 44 C-4.99 44 -5.98 44 -7 44 C-6.54554036 42.58208592 -6.08625056 41.16571954 -5.625 39.75 C-5.36976562 38.96109375 -5.11453125 38.1721875 -4.8515625 37.359375 C-4 35 -4 35 -2.9609375 33.078125 C-0.92083159 28.66618863 -0.85659122 23.73981386 -0.68359375 18.9453125 C-0.64169922 17.83671875 -0.59980469 16.728125 -0.55664062 15.5859375 C-0.51732422 14.44382813 -0.47800781 13.30171875 -0.4375 12.125 C-0.39431641 10.9596875 -0.35113281 9.794375 -0.30664062 8.59375 C-0.20098371 5.72927375 -0.09888201 2.86471679 0 0 Z " fill="#575757" transform="translate(79,135)"/>
<path d="M0 0 C2.31 0 4.62 0 7 0 C7 1.65 7 3.3 7 5 C8.65 5 10.3 5 12 5 C12 4.34 12 3.68 12 3 C14.31 3 16.62 3 19 3 C19.99 5.31 20.98 7.62 22 10 C16.72 10 11.44 10 6 10 C6 7.03 6 4.06 6 1 C4.02 1 2.04 1 0 1 C0 0.67 0 0.34 0 0 Z " fill="#A59C85" transform="translate(154,48)"/>
<path d="M0 0 C-2.92658573 1.61466799 -5.52743089 2.42058624 -8.8125 3 C-12.97118021 3.77628697 -16.95437165 4.76872181 -21 6 C-21.99 4.68 -22.98 3.36 -24 2 C-16.21656993 -4.93740506 -9.33788242 -3.04496166 0 0 Z " fill="#CFBB9D" transform="translate(118,3)"/>
<path d="M0 0 C3.96 0 7.92 0 12 0 C10.68 0.99 9.36 1.98 8 3 C7.20376178 5.09415804 7.20376178 5.09415804 7 7 C7.66 6.67 8.32 6.34 9 6 C9 5.34 9 4.68 9 4 C12.01031744 3.06576355 12.86650268 2.95550089 16 4 C15.67 5.32 15.34 6.64 15 8 C8.07 8 1.14 8 -6 8 C-4.68 7.67 -3.36 7.34 -2 7 C-1.8453125 6.0409375 -1.8453125 6.0409375 -1.6875 5.0625 C-1.460625 4.381875 -1.23375 3.70125 -1 3 C-0.01 2.67 0.98 2.34 2 2 C2.33 1.67 2.66 1.34 3 1 C2.01 0.67 1.02 0.34 0 0 Z " fill="#242323" transform="translate(157,124)"/>
<path d="M0 0 C3.3 0 6.6 0 10 0 C10 1.98 10 3.96 10 6 C8.68 6.33 7.36 6.66 6 7 C5.67 8.32 5.34 9.64 5 11 C2.69 11 0.38 11 -2 11 C-1.855625 10.29875 -1.71125 9.5975 -1.5625 8.875 C-0.98521625 5.92443859 -0.48304859 2.96729849 0 0 Z " fill="#D8D5C4" transform="translate(155,86)"/>
<path d="M0 0 C0.33 0.99 0.66 1.98 1 3 C2.32 2.34 3.64 1.68 5 1 C5.144375 2.0725 5.28875 3.145 5.4375 4.25 C5.83090197 7.76030882 5.83090197 7.76030882 6.75 10 C7.17365256 13.38922047 5.45551018 15.97253884 4 19 C1.18167487 17.59083743 0.97406539 15.92219617 0 13 C0 12.01 0 11.02 0 10 C-0.66 10 -1.32 10 -2 10 C-1.54177532 6.53058454 -1.10868317 3.32604951 0 0 Z " fill="#2F3E40" transform="translate(68,156)"/>
<path d="M0 0 C0.72445312 0.47050781 1.44890625 0.94101563 2.1953125 1.42578125 C9.40010298 6.06820817 9.40010298 6.06820817 17 10 C10.76972471 13.22255619 10.76972471 13.22255619 7.5546875 12.29296875 C6.67039062 11.92816406 5.78609375 11.56335938 4.875 11.1875 C3.98554687 10.83042969 3.09609375 10.47335938 2.1796875 10.10546875 C0 9 0 9 -1 7 C-0.34 7 0.32 7 1 7 C0.67 4.69 0.34 2.38 0 0 Z " fill="#C4B19F" transform="translate(84,120)"/>
<path d="M0 0 C1.11346788 2.80033839 1.03510273 3.90143703 0.00390625 6.796875 C-0.47175781 7.77140625 -0.94742188 8.7459375 -1.4375 9.75 C-1.91058594 10.73484375 -2.38367188 11.7196875 -2.87109375 12.734375 C-3.24363281 13.48203125 -3.61617187 14.2296875 -4 15 C-1.69 13.35 0.62 11.7 3 10 C0.52490535 15.52136498 -2.58350777 17.46709747 -8 20.0625 C-11.16667026 21.58762428 -14.07249392 23.04832928 -17 25 C-19.6875 25.125 -19.6875 25.125 -22 25 C-21.67 25.99 -21.34 26.98 -21 28 C-20.93259135 29.56118428 -20.91485544 31.1250252 -20.9375 32.6875 C-20.94652344 33.49574219 -20.95554687 34.30398437 -20.96484375 35.13671875 C-20.97644531 35.75160156 -20.98804688 36.36648437 -21 37 C-21.99 36.67 -22.98 36.34 -24 36 C-24.08086147 34.20906809 -24.13912702 32.41710372 -24.1875 30.625 C-24.22230469 29.62726563 -24.25710937 28.62953125 -24.29296875 27.6015625 C-24.14794922 26.31378906 -24.14794922 26.31378906 -24 25 C-21 23 -21 23 -18.3125 22.1875 C-12.50062765 20.10399859 -8.40170296 18.41286666 -5.19140625 12.88671875 C-3.22895468 8.65591787 -1.47477526 4.42432578 0 0 Z " fill="#646464" transform="translate(35,99)"/>
<path d="M0 0 C3.77001757 0.40978452 5.80106814 0.86737876 9 3 C9 3.99 9 4.98 9 6 C7.25093469 6.64836042 5.50070781 7.29358784 3.75 7.9375 C2.77546875 8.29714844 1.8009375 8.65679687 0.796875 9.02734375 C-1.46457161 9.81379655 -3.66796552 10.47251601 -6 11 C-5.625 8.5625 -5.625 8.5625 -5 6 C-4.34 5.67 -3.68 5.34 -3 5 C-2.30062468 3.68352881 -1.63270867 2.34977849 -1 1 C-0.67 0.67 -0.34 0.34 0 0 Z " fill="#FBF8F4" transform="translate(85,74)"/>
<path d="M0 0 C2 2 2 2 2 4 C2.66 4.66 3.32 5.32 4 6 C0.125 5.125 0.125 5.125 -1 4 C-5.55015073 4.03905709 -9.743144 4.70033204 -13.875 6.625 C-17 8 -17 8 -20 7 C-19 4 -19 4 -17.07421875 2.8671875 C-16.28660156 2.53976563 -15.49898438 2.21234375 -14.6875 1.875 C-13.90761719 1.54242188 -13.12773438 1.20984375 -12.32421875 0.8671875 C-7.76273993 -0.83474241 -4.82508749 -1.15382527 0 0 Z " fill="#120F0E" transform="translate(99,85)"/>
<path d="M0 0 C0.33 0 0.66 0 1 0 C0.85764543 1.72945653 0.71095618 3.45855654 0.5625 5.1875 C0.48128906 6.15042969 0.40007812 7.11335938 0.31640625 8.10546875 C0.02333849 10.78649602 -0.42703754 13.3662986 -1 16 C-1.19335938 15.35546875 -1.38671875 14.7109375 -1.5859375 14.046875 C-2.88708247 11.65648799 -2.88708247 11.65648799 -6.0390625 11.390625 C-7.81410156 11.32101563 -7.81410156 11.32101563 -9.625 11.25 C-10.81351563 11.19328125 -12.00203125 11.1365625 -13.2265625 11.078125 C-14.14179687 11.05234375 -15.05703125 11.0265625 -16 11 C-13.43099663 8.97576297 -10.97331862 7.41559226 -8 6.0625 C-4.71231519 4.47681962 -2.45305039 2.74741643 0 0 Z " fill="#CCB098" transform="translate(142,54)"/>
<path d="M0 0 C-1.27272872 5.27273326 -2.28730363 7.54327227 -6.8125 10.75 C-7.68519531 11.38421875 -8.55789062 12.0184375 -9.45703125 12.671875 C-12 14 -12 14 -14.32421875 13.703125 C-15.15373047 13.35507812 -15.15373047 13.35507812 -16 13 C-16 12.34 -16 11.68 -16 11 C-15.34 11 -14.68 11 -14 11 C-13.76152344 10.41734375 -13.52304687 9.8346875 -13.27734375 9.234375 C-11.73674268 6.53950096 -10.01780644 5.13683648 -7.5625 3.25 C-6.78003906 2.63640625 -5.99757813 2.0228125 -5.19140625 1.390625 C-3 0 -3 0 0 0 Z " fill="#CCB493" transform="translate(42,14)"/>
<path d="M0 0 C1.32 0 2.64 0 4 0 C4.07111514 4.05356321 4.0400532 7.73297867 3.4375 11.75 C2.80582728 14.81703139 2.80582728 14.81703139 3.5625 17 C4.27019781 20.23518998 3.00652267 22.92122478 2 26 C0 25 0 25 -0.6171875 23.30859375 C-1.07822493 20.52825577 -1.13210828 17.88093295 -1.125 15.0625 C-1.12757812 14.04285156 -1.13015625 13.02320312 -1.1328125 11.97265625 C-1.00911936 9.20411275 -0.62526738 6.69460465 0 4 C0.66 4 1.32 4 2 4 C2 3.01 2 2.02 2 1 C1.34 0.67 0.68 0.34 0 0 Z " fill="#8D8D8C" transform="translate(1,85)"/>
<path d="M0 0 C0.66 0 1.32 0 2 0 C2.28875 1.134375 2.5775 2.26875 2.875 3.4375 C3.24625 4.613125 3.6175 5.78875 4 7 C4.66 7.33 5.32 7.66 6 8 C6 9.65 6 11.3 6 13 C7.3921875 13.1546875 7.3921875 13.1546875 8.8125 13.3125 C12.03254358 14.0070192 13.02579865 14.47740939 15 17 C14.01 19.475 14.01 19.475 13 22 C11.68 21.67 10.36 21.34 9 21 C8.9175 20.38125 8.835 19.7625 8.75 19.125 C8.18741541 16.81562433 8.18741541 16.81562433 5.9375 15.75 C5.298125 15.5025 4.65875 15.255 4 15 C4.33 13.35 4.66 11.7 5 10 C4.01 10 3.02 10 2 10 C1.34 6.7 0.68 3.4 0 0 Z " fill="#747371" transform="translate(147,128)"/>
<path d="M0 0 C1.65 0.33 3.3 0.66 5 1 C5.50567729 3.56149628 6.00470132 6.12399465 6.5 8.6875 C6.64308594 9.40873047 6.78617188 10.12996094 6.93359375 10.87304688 C7.65571887 14.63841359 8.1824976 18.14473813 8 22 C4.05135521 17.80456491 4.05135521 17.80456491 3.8125 14.0625 C3.874375 13.051875 3.93625 12.04125 4 11 C3.70285977 8.99430341 3.37938617 6.99177741 3 5 C1.68 5 0.36 5 -1 5 C-0.34 5.66 0.32 6.32 1 7 C-0.32 7.33 -1.64 7.66 -3 8 C-3.33 6.35 -3.66 4.7 -4 3 C-2.68 2.67 -1.36 2.34 0 2 C0 1.34 0 0.68 0 0 Z " fill="#D8CABF" transform="translate(49,71)"/>
<path d="M0 0 C9.24 0 18.48 0 28 0 C28 0.33 28 0.66 28 1 C23.38 1 18.76 1 14 1 C14.62841973 4.9714169 14.62841973 4.9714169 17 7 C16.01 7 15.02 7 14 7 C13.67 8.98 13.34 10.96 13 13 C12.01 13.33 11.02 13.66 10 14 C10.66 10.04 11.32 6.08 12 2 C8.37 2.33 4.74 2.66 1 3 C0.67 2.01 0.34 1.02 0 0 Z " fill="#7D7B76" transform="translate(153,84)"/>
<path d="M0 0 C1.9375 0.75 1.9375 0.75 4 2 C4.33 3.32 4.66 4.64 5 6 C9.29 6.33 13.58 6.66 18 7 C18 5.68 18 4.36 18 3 C19.32 3.33 20.64 3.66 22 4 C21.67 5.32 21.34 6.64 21 8 C13.08 8 5.16 8 -3 8 C-1 2 -1 2 0 0 Z " fill="#D2C3A5" transform="translate(10,46)"/>
<path d="M0 0 C6.38932496 3.62637363 6.38932496 3.62637363 8 6 C8.1875 9.6875 8.1875 9.6875 8 13 C6.35 13 4.7 13 3 13 C2.67 14.32 2.34 15.64 2 17 C2.04125 15.96875 2.0825 14.9375 2.125 13.875 C2.0032453 10.10060421 1.25169779 7.52040004 0 4 C0 2.68 0 1.36 0 0 Z " fill="#D7CDC4" transform="translate(77,114)"/>
<path d="M0 0 C0.66 0.66 1.32 1.32 2 2 C1.625 4.125 1.625 4.125 1 6 C0.01 6 -0.98 6 -2 6 C-2.16677282 9.41656024 -2.16677282 9.41656024 -2 13 C-1.34 13.66 -0.68 14.32 0 15 C-1.175625 15.185625 -1.175625 15.185625 -2.375 15.375 C-5.14057822 15.79117993 -5.14057822 15.79117993 -7 18 C-7 15.69 -7 13.38 -7 11 C-6.67 11 -6.34 11 -6 11 C-6 8.03 -6 5.06 -6 2 C-4.02 1.34 -2.04 0.68 0 0 Z " fill="#AEABA1" transform="translate(155,109)"/>
<path d="M0 0 C7.92 0 15.84 0 24 0 C24 0.33 24 0.66 24 1 C23.05125 1.12375 22.1025 1.2475 21.125 1.375 C17.91332809 1.71687177 17.91332809 1.71687177 16 4 C13.11788698 4.96070434 11.30149956 5.10581883 8.3125 5.0625 C7.10013672 5.04896484 7.10013672 5.04896484 5.86328125 5.03515625 C4.94095703 5.01775391 4.94095703 5.01775391 4 5 C4 4.01 4 3.02 4 2 C2.68 1.34 1.36 0.68 0 0 Z " fill="#B6AFA0" transform="translate(6,56)"/>
<path d="M0 0 C1.22739588 3.68218763 0.28037626 4.60114449 -1.296875 7.94921875 C-2.53584924 11.56289362 -2.23083454 15.22970253 -2 19 C-4.70879335 20.35439668 -7.00933268 20.06501451 -10 20 C-6.66666667 13.33333333 -3.33333333 6.66666667 0 0 Z " fill="#212426" transform="translate(110,160)"/>
<path d="M0 0 C0.8353125 0.48919922 0.8353125 0.48919922 1.6875 0.98828125 C6.68574235 3.85045043 11.55626223 6.11943604 17 8 C15.68 9.65 14.36 11.3 13 13 C8.77604752 11.63886645 6.57106374 9.84515115 3.6875 6.5 C2.99011719 5.7059375 2.29273437 4.911875 1.57421875 4.09375 C0 2 0 2 0 0 Z " fill="#C5AC96" transform="translate(95,47)"/>
<path d="M0 0 C1.32 0.99 2.64 1.98 4 3 C4.66 2.34 5.32 1.68 6 1 C6.9821994 4.27626375 7.11580914 7.22788119 7.09765625 10.640625 C7.09443359 11.71054688 7.09121094 12.78046875 7.08789062 13.8828125 C7.07951172 14.99398437 7.07113281 16.10515625 7.0625 17.25 C7.05798828 18.37664062 7.05347656 19.50328125 7.04882812 20.6640625 C7.03705397 23.44276217 7.0206084 26.22135409 7 29 C4 29 4 29 2.17578125 27.25 C1.56089844 26.5075 0.94601563 25.765 0.3125 25 C-0.31011719 24.2575 -0.93273438 23.515 -1.57421875 22.75 C-2.04472656 22.1725 -2.51523437 21.595 -3 21 C-2.01 21 -1.02 21 0 21 C2.1875 23.5 2.1875 23.5 4 26 C5.24854249 22.07016133 5.29358419 18.08559328 5.375 14 C5.41238281 13.2884375 5.44976562 12.576875 5.48828125 11.84375 C5.58228003 9.46468618 5.58228003 9.46468618 5 6 C2.59994578 3.60349184 2.59994578 3.60349184 0 2 C0 1.34 0 0.68 0 0 Z " fill="#6F6F6F" transform="translate(59,133)"/>
<path d="M0 0 C1.51331675 3.88077546 0.42539467 6.15730144 -1.1875 9.875 C-1.65027344 10.94492187 -2.11304687 12.01484375 -2.58984375 13.1171875 C-4 16 -4 16 -6.25 19 C-8.98365614 23.68626767 -8.82721387 28.66090846 -9 34 C-10.32 34 -11.64 34 -13 34 C-12.74462428 31.8939014 -12.47014626 29.79011246 -12.1875 27.6875 C-12.03667969 26.51574219 -11.88585937 25.34398437 -11.73046875 24.13671875 C-10.95864731 20.82242669 -10.46766282 20.13306447 -8 18 C-5.48632889 14.2585718 -3.88734558 10.40127601 -2.3125 6.1875 C-1.87550781 5.02605469 -1.43851563 3.86460938 -0.98828125 2.66796875 C-0.66214844 1.78753906 -0.33601563 0.90710938 0 0 Z " fill="#5A5A5A" transform="translate(77,16)"/>
<path d="M0 0 C2.125 0.375 2.125 0.375 4 1 C4 2.65 4 4.3 4 6 C4.66 6 5.32 6 6 6 C6 6.66 6 7.32 6 8 C5.01 8.33 4.02 8.66 3 9 C2.67 9.66 2.34 10.32 2 11 C0.68 10.67 -0.64 10.34 -2 10 C-2.1953125 3.9453125 -2.1953125 3.9453125 -2 2 C-1.34 1.34 -0.68 0.68 0 0 Z " fill="#BB9C6E" transform="translate(90,154)"/>
<path d="M0 0 C0 0.99 0 1.98 0 3 C-5.61 3.66 -11.22 4.32 -17 5 C-16.67 4.01 -16.34 3.02 -16 2 C-15.34 2 -14.68 2 -14 2 C-14 1.34 -14 0.68 -14 0 C-8.97874074 -0.77916092 -5.02296004 -1.13016601 0 0 Z " fill="#E7E6E8" transform="translate(117,108)"/>
<path d="M0 0 C0.33 0.66 0.66 1.32 1 2 C0.01 3.485 0.01 3.485 -1 5 C-1.66 4.34 -2.32 3.68 -3 3 C-4.93030607 3.27342623 -4.93030607 3.27342623 -7 4 C-8.41666667 4.35416667 -9.83333333 4.70833333 -11.25 5.0625 C-12.4875 5.371875 -13.725 5.68125 -15 6 C-14.375 3.625 -14.375 3.625 -13 1 C-8.46669559 -1.31936505 -4.89899669 -1.1527051 0 0 Z " fill="#39312C" transform="translate(137,83)"/>
<path d="M0 0 C1 3 1 3 1 6 C1.99 5.01 2.98 4.02 4 3 C2.7874262 6.72433382 1.49140021 10.37802806 0 14 C-0.66 14 -1.32 14 -2 14 C-2.12117188 14.69867188 -2.24234375 15.39734375 -2.3671875 16.1171875 C-2.53476563 17.02726562 -2.70234375 17.93734375 -2.875 18.875 C-3.11863281 20.23238281 -3.11863281 20.23238281 -3.3671875 21.6171875 C-4 24 -4 24 -6 26 C-5.39547455 20.39554534 -4.41194282 15.07837336 -3 9.625 C-2.82210937 8.91472656 -2.64421875 8.20445312 -2.4609375 7.47265625 C-1.14122828 2.28245656 -1.14122828 2.28245656 0 0 Z " fill="#333333" transform="translate(121,143)"/>
<path d="M0 0 C0.66 0.66 1.32 1.32 2 2 C1.6875 4.25 1.6875 4.25 1 7 C0.814375 8.485 0.814375 8.485 0.625 10 C-0.04308147 13.20679104 -1.17611957 15.30382893 -3 18 C-3.99 17.67 -4.98 17.34 -6 17 C-5.67 15.35 -5.34 13.7 -5 12 C-4.34 12 -3.68 12 -3 12 C-3.309375 10.948125 -3.309375 10.948125 -3.625 9.875 C-4.08389078 6.35683738 -3.39601248 4.23287101 -2 1 C-1.34 0.67 -0.68 0.34 0 0 Z " fill="#BBB9AC" transform="translate(163,92)"/>
<path d="M0 0 C1.13933731 3.41801193 0.84635225 4.18944614 -0.25 7.5 C-0.52956543 8.38276611 -0.80913086 9.26553223 -1.09716797 10.17504883 C-1.39510254 11.10728271 -1.69303711 12.0395166 -2 13 C-4.31785954 20.57731941 -6.03235842 27.11075415 -4 35 C-6.65870184 32.34129816 -6.9676017 30.54807131 -7.1875 26.828125 C-6.97859093 22.56289822 -6.13104776 18.84622703 -5 14.75 C-3.51145355 9.45495591 -3.51145355 9.45495591 -3 4 C-1.5 1.8125 -1.5 1.8125 0 0 Z " fill="#626262" transform="translate(57,35)"/>
<path d="M0 0 C0 0.33 0 0.66 0 1 C-2.31 1.66 -4.62 2.32 -7 3 C-7 3.66 -7 4.32 -7 5 C-10.3 5.66 -13.6 6.32 -17 7 C-17.66 6.01 -18.32 5.02 -19 4 C-16.95301586 1.95301586 -12.69588759 2.29954307 -10 2 C-10.66 1.34 -11.32 0.68 -12 0 C-7.6835078 -0.76173392 -4.25566547 -1.16063604 0 0 Z " fill="#787063" transform="translate(21,62)"/>
<path d="M0 0 C1.27351308 2.54702616 0.80191925 3.4282945 0.0625 6.125 C-0.13214844 6.84945312 -0.32679687 7.57390625 -0.52734375 8.3203125 C-0.68332031 8.87460938 -0.83929688 9.42890625 -1 10 C-5.46840411 9.50351065 -6.68987756 9.31012244 -10 6 C-6.7 4.02 -3.4 2.04 0 0 Z " fill="#D7B79A" transform="translate(119,56)"/>
<path d="M0 0 C1.32 0 2.64 0 4 0 C3.95875 1.0725 3.9175 2.145 3.875 3.25 C3.9885825 6.65747485 4.21273364 8.20739631 6 11 C3.625 11.625 3.625 11.625 1 12 C-1 10 -1 10 -1.23046875 7.87109375 C-1.20919922 6.66646484 -1.20919922 6.66646484 -1.1875 5.4375 C-1.18105469 4.63183594 -1.17460937 3.82617188 -1.16796875 2.99609375 C-1 1 -1 1 0 0 Z " fill="#5D5C5A" transform="translate(150,124)"/>
<path d="M0 0 C-0.33 2.31 -0.66 4.62 -1 7 C-2.32 7.33 -3.64 7.66 -5 8 C-5 7.34 -5 6.68 -5 6 C-5.66 6 -6.32 6 -7 6 C-7.33 6.66 -7.66 7.32 -8 8 C-8.33 7.01 -8.66 6.02 -9 5 C-8.34 4.34 -7.68 3.68 -7 3 C-8.65 2.67 -10.3 2.34 -12 2 C-12 1.67 -12 1.34 -12 1 C-7.93631321 0.22596442 -4.13574827 -0.0984702 0 0 Z " fill="#393938" transform="translate(179,110)"/>
<path d="M0 0 C0.33 0.66 0.66 1.32 1 2 C6.94 2 12.88 2 19 2 C19 2.66 19 3.32 19 4 C17.73542969 4.01417969 16.47085938 4.02835938 15.16796875 4.04296875 C13.50777588 4.08986685 11.84762073 4.13811426 10.1875 4.1875 C8.93743164 4.19620117 8.93743164 4.19620117 7.66210938 4.20507812 C5.33530174 4.28917961 3.25372062 4.41026791 1 5 C-1.15580017 7.3768061 -1.15580017 7.3768061 -2 10 C-3 8 -3 8 -2.44140625 6.0546875 C-2.15136719 5.33539063 -1.86132812 4.61609375 -1.5625 3.875 C-1.27503906 3.15054688 -0.98757812 2.42609375 -0.69140625 1.6796875 C-0.46324219 1.12539063 -0.23507813 0.57109375 0 0 Z " fill="#5B564D" transform="translate(149,39)"/>
<path d="M0 0 C0.99 0.33 1.98 0.66 3 1 C3.6875 3.0625 3.6875 3.0625 4 5 C0.99580359 6.0013988 -1.87709365 6.51421457 -5 7 C-5 8.32 -5 9.64 -5 11 C-5.99 10.67 -6.98 10.34 -8 10 C-7.67 7.69 -7.34 5.38 -7 3 C-5.5459375 2.5359375 -5.5459375 2.5359375 -4.0625 2.0625 C-1.15934208 1.30476658 -1.15934208 1.30476658 0 0 Z " fill="#575755" transform="translate(160,112)"/>
<path d="M0 0 C0.66 0 1.32 0 2 0 C6.5138263 4.5138263 8.33070657 8.89282892 10 15 C8.203125 14.87109375 8.203125 14.87109375 6 14 C4.296875 11.34765625 4.296875 11.34765625 2.75 8.0625 C2.22921875 6.98097656 1.7084375 5.89945313 1.171875 4.78515625 C0 2 0 2 0 0 Z " fill="#D7B99E" transform="translate(85,51)"/>
<path d="M0 0 C-0.33 1.32 -0.66 2.64 -1 4 C-7.93 4 -14.86 4 -22 4 C-20.68 3.67 -19.36 3.34 -18 3 C-18 2.01 -18 1.02 -18 0 C-17.34 0 -16.68 0 -16 0 C-16 0.99 -16 1.98 -16 3 C-11.545 2.505 -11.545 2.505 -7 2 C-7 1.34 -7 0.68 -7 0 C-3.86650268 -1.04449911 -3.01031744 -0.93423645 0 0 Z " fill="#0B0B0B" transform="translate(173,128)"/>
<path d="M0 0 C2.475 0.99 2.475 0.99 5 2 C5 2.66 5 3.32 5 4 C6.98 3.67 8.96 3.34 11 3 C11.66 4.32 12.32 5.64 13 7 C12.01 7 11.02 7 10 7 C10 6.34 10 5.68 10 5 C8.02 5.33 6.04 5.66 4 6 C4.66 6.33 5.32 6.66 6 7 C5.67 7.99 5.34 8.98 5 10 C1.535 8.02 1.535 8.02 -2 6 C-1.01 5.01 -0.02 4.02 1 3 C0.67 2.01 0.34 1.02 0 0 Z " fill="#E5DAD0" transform="translate(45,90)"/>
<path d="M0 0 C4.62 0 9.24 0 14 0 C14 0.99 14 1.98 14 3 C12 5 12 5 8.375 5.125 C7.26125 5.08375 6.1475 5.0425 5 5 C5 4.01 5 3.02 5 2 C3.35 1.67 1.7 1.34 0 1 C0 0.67 0 0.34 0 0 Z " fill="#141313" transform="translate(167,85)"/>
<path d="M0 0 C4.62 0 9.24 0 14 0 C13.67 0.99 13.34 1.98 13 3 C9.7 3 6.4 3 3 3 C2.87625 3.763125 2.7525 4.52625 2.625 5.3125 C2 8 2 8 0 11 C0 7.37 0 3.74 0 0 Z " fill="#64625C" transform="translate(0,83)"/>
<path d="M0 0 C1.50559539 1.96382007 2.89131683 3.78263366 4 6 C8.30764815 4.43358249 12.06171464 2.31663844 16 0 C16 0.99 16 1.98 16 3 C14.26164943 4.06099328 12.50880196 5.09826483 10.75 6.125 C9.28820312 6.99511719 9.28820312 6.99511719 7.796875 7.8828125 C5 9 5 9 2.640625 8.1796875 C2.09921875 7.79039063 1.5578125 7.40109375 1 7 C1 6.34 1 5.68 1 5 C-0.32 4.67 -1.64 4.34 -3 4 C-2.67 3.34 -2.34 2.68 -2 2 C-1.34 2.33 -0.68 2.66 0 3 C0 2.01 0 1.02 0 0 Z " fill="#4B433D" transform="translate(73,67)"/>
<path d="M0 0 C0.33 0 0.66 0 1 0 C0.67 3.63 0.34 7.26 0 11 C0.66 11 1.32 11 2 11 C2 12.32 2 13.64 2 15 C0.35 15.33 -1.3 15.66 -3 16 C-3.33266291 9.79029227 -2.45029331 5.71735105 0 0 Z " fill="#131515" transform="translate(113,163)"/>
<path d="M0 0 C0.33 0.66 0.66 1.32 1 2 C1.66 2 2.32 2 3 2 C3.125 8.75 3.125 8.75 2 11 C0.35 11 -1.3 11 -3 11 C-2.69078116 9.54096742 -2.37751201 8.08279278 -2.0625 6.625 C-1.88847656 5.81289062 -1.71445313 5.00078125 -1.53515625 4.1640625 C-1 2 -1 2 0 0 Z " fill="#DCDEE1" transform="translate(86,137)"/>
<path d="M0 0 C3.63 0 7.26 0 11 0 C11.33 0.66 11.66 1.32 12 2 C9.69 2.33 7.38 2.66 5 3 C5 4.32 5 5.64 5 7 C3.35 7 1.7 7 0 7 C0 4.69 0 2.38 0 0 Z " fill="#8D7B66" transform="translate(151,33)"/>
<path d="M0 0 C1.32 0.66 2.64 1.32 4 2 C2.50902342 5.7952131 0.24299151 7.61042731 -3 10 C-3.99 8.02 -4.98 6.04 -6 4 C-5.195625 3.525625 -4.39125 3.05125 -3.5625 2.5625 C-1.15246512 1.23099846 -1.15246512 1.23099846 0 0 Z " fill="#B89C79" transform="translate(143,16)"/>
<path d="M0 0 C0.33 0 0.66 0 1 0 C1.144375 1.0725 1.28875 2.145 1.4375 3.25 C1.85220246 6.78332215 1.85220246 6.78332215 2.75 9.1875 C3 11 3 11 1.5625 13.25 C1.046875 13.8275 0.53125 14.405 0 15 C-2.33486745 11.35176961 -2.30399283 8.25589957 -2 4 C-1 1.5625 -1 1.5625 0 0 Z " fill="#7AB2B5" transform="translate(71,160)"/>
<path d="M0 0 C1.134375 0.020625 2.26875 0.04125 3.4375 0.0625 C4.4375 3.0625 4.4375 3.0625 4.4375 5.0625 C4.7675 5.7225 5.0975 6.3825 5.4375 7.0625 C4.7775 7.7225 4.1175 8.3825 3.4375 9.0625 C2.4475 8.7325 1.4575 8.4025 0.4375 8.0625 C0.4375 7.0725 0.4375 6.0825 0.4375 5.0625 C-0.201875 4.959375 -0.84125 4.85625 -1.5 4.75 C-2.180625 4.523125 -2.86125 4.29625 -3.5625 4.0625 C-3.8925 3.0725 -4.2225 2.0825 -4.5625 1.0625 C-3.5625 0.0625 -3.5625 0.0625 0 0 Z " fill="#3A3A39" transform="translate(158.5625,136.9375)"/>
<path d="M0 0 C2 2 2 2 2 6 C-2.455 6.495 -2.455 6.495 -7 7 C-7.66 6.01 -8.32 5.02 -9 4 C-7.88625 3.525625 -6.7725 3.05125 -5.625 2.5625 C-3.73289006 1.74693537 -1.84287291 0.92143645 0 0 Z " fill="#020202" transform="translate(179,93)"/>
<path d="M0 0 C0.64066406 0.33773437 1.28132813 0.67546875 1.94140625 1.0234375 C6.91183896 3.58643261 11.55791498 5.69863184 17 7 C16.01 7.66 15.02 8.32 14 9 C13.67 8.67 13.34 8.34 13 8 C10.18980604 7.79701649 7.38184134 7.68066936 4.56640625 7.57421875 C2 7 2 7 0.65234375 5.14453125 C0 3 0 3 0 0 Z " fill="#DACBBD" transform="translate(92,58)"/>
<path d="M0 0 C2.10353495 -0.0810206 4.20795952 -0.13919907 6.3125 -0.1875 C7.48425781 -0.22230469 8.65601563 -0.25710937 9.86328125 -0.29296875 C13 0 13 0 16 3 C10.72 3 5.44 3 0 3 C0 2.01 0 1.02 0 0 Z " fill="#B6B5A7" transform="translate(160,55)"/>
<path d="M0 0 C0.75410156 0.00451172 1.50820312 0.00902344 2.28515625 0.01367188 C4.14847127 0.02546501 6.01174555 0.04340058 7.875 0.0625 C7.875 0.7225 7.875 1.3825 7.875 2.0625 C6.59302734 2.15337891 6.59302734 2.15337891 5.28515625 2.24609375 C4.18042969 2.32988281 3.07570312 2.41367188 1.9375 2.5 C0.83535156 2.58121094 -0.26679688 2.66242188 -1.40234375 2.74609375 C-4.03609903 2.76668084 -4.03609903 2.76668084 -5.125 4.0625 C-6.79117115 4.10313832 -8.45888095 4.105221 -10.125 4.0625 C-10.125 3.0725 -10.125 2.0825 -10.125 1.0625 C-6.93675432 -0.53162284 -3.49603338 -0.03924735 0 0 Z " fill="#313130" transform="translate(163.125,131.9375)"/>
<path d="M0 0 C0.66 0 1.32 0 2 0 C4.82414816 5.05719554 6.32824311 9.17810696 7 15 C7.95584438 17.33588323 7.95584438 17.33588323 9 19 C6 18 6 18 4.90234375 16.25 C2.61193724 10.90880911 1.02800662 5.72166843 0 0 Z " fill="#D0B59D" transform="translate(70,55)"/>
<path d="M0 0 C-0.33 4.62 -0.66 9.24 -1 14 C-1.99 14 -2.98 14 -4 14 C-3.67 11.36 -3.34 8.72 -3 6 C-6.11332248 6.66868314 -6.11332248 6.66868314 -7.1875 9.0625 C-7.455625 9.701875 -7.72375 10.34125 -8 11 C-8 7.65399937 -7.54040834 6.97685525 -5.625 4.375 C-5.18414062 3.76398437 -4.74328125 3.15296875 -4.2890625 2.5234375 C-3.03054501 1.03609865 -2.06324138 0 0 0 Z " fill="#353535" transform="translate(46,58)"/>
<path d="M0 0 C-2.97 1.32 -5.94 2.64 -9 4 C-8.67 4.66 -8.34 5.32 -8 6 C-12.625 8.125 -12.625 8.125 -16 7 C-15 4 -15 4 -13.07421875 2.8671875 C-12.28660156 2.53976563 -11.49898438 2.21234375 -10.6875 1.875 C-9.90761719 1.54242188 -9.12773438 1.20984375 -8.32421875 0.8671875 C-2.56400385 -1.28200192 -2.56400385 -1.28200192 0 0 Z " fill="#59514C" transform="translate(95,85)"/>
<path d="M0 0 C-0.1875 1.875 -0.1875 1.875 -1 4 C-3.5625 5.25 -3.5625 5.25 -6 6 C-6.28875 5.38125 -6.5775 4.7625 -6.875 4.125 C-7.93720042 1.86674235 -7.93720042 1.86674235 -10 0 C-6.22996568 -2.61002376 -4.07631429 -1.66758312 0 0 Z " fill="#D4BAA2" transform="translate(107,84)"/>
<path d="M0 0 C3.3 0 6.6 0 10 0 C10.33 0.99 10.66 1.98 11 3 C8.69 3 6.38 3 4 3 C4 3.66 4 4.32 4 5 C2.35 5 0.7 5 -1 5 C-0.67 3.35 -0.34 1.7 0 0 Z " fill="#DBCEA6" transform="translate(162,48)"/>
<path d="M0 0 C0.66 0 1.32 0 2 0 C2.28875 1.134375 2.5775 2.26875 2.875 3.4375 C3.24625 4.613125 3.6175 5.78875 4 7 C4.66 7.33 5.32 7.66 6 8 C6 9.65 6 11.3 6 13 C7.32 13.33 8.64 13.66 10 14 C9.01 15.485 9.01 15.485 8 17 C6.68 16.34 5.36 15.68 4 15 C4.33 13.35 4.66 11.7 5 10 C4.01 10 3.02 10 2 10 C1.34 6.7 0.68 3.4 0 0 Z " fill="#9C9B94" transform="translate(147,128)"/>
<path d="M0 0 C0.66 0.33 1.32 0.66 2 1 C1.814375 1.763125 1.62875 2.52625 1.4375 3.3125 C0.77180827 6.08967375 0.77180827 6.08967375 2 9 C0.02 9 -1.96 9 -4 9 C-4.625 6.625 -4.625 6.625 -5 4 C-3 2 -3 2 0 0 Z " fill="#C1AD9B" transform="translate(48,79)"/>
<path d="M0 0 C-0.33 1.32 -0.66 2.64 -1 4 C-3.64 4 -6.28 4 -9 4 C-8.67 4.99 -8.34 5.98 -8 7 C-8.99 7 -9.98 7 -11 7 C-10.67 5.02 -10.34 3.04 -10 1 C-6.61981469 -0.04005702 -3.5219721 -0.08004482 0 0 Z " fill="#3E3E3D" transform="translate(175,124)"/>
<path d="M0 0 C1.32 0 2.64 0 4 0 C4 0.66 4 1.32 4 2 C3.01 2.66 2.02 3.32 1 4 C1 4.804375 1 5.60875 1 6.4375 C1 9 1 9 -0.5 10.8125 C-0.995 11.204375 -1.49 11.59625 -2 12 C-2 10.68 -2 9.36 -2 8 C-2.66 8 -3.32 8 -4 8 C-2.25 2.25 -2.25 2.25 0 0 Z " fill="#E9E2DB" transform="translate(45,71)"/>
<path d="M0 0 C0.33 0 0.66 0 1 0 C0.67 4.29 0.34 8.58 0 13 C-1.32 13.33 -2.64 13.66 -4 14 C-3.71572583 12.41532272 -3.42225182 10.8322943 -3.125 9.25 C-2.96257812 8.36828125 -2.80015625 7.4865625 -2.6328125 6.578125 C-2.03203736 4.13052256 -1.22002883 2.19400143 0 0 Z " fill="#212121" transform="translate(79,166)"/>
<path d="M0 0 C0.90105469 0.00902344 1.80210938 0.01804687 2.73046875 0.02734375 C3.41753906 0.03894531 4.10460937 0.05054687 4.8125 0.0625 C5.1425 0.7225 5.4725 1.3825 5.8125 2.0625 C2.1825 2.0625 -1.4475 2.0625 -5.1875 2.0625 C-2.7125 5.5275 -2.7125 5.5275 -0.1875 9.0625 C-3.07187779 7.76950306 -5.05969421 6.40308637 -7.1875 4.0625 C-6.8575 3.4025 -6.5275 2.7425 -6.1875 2.0625 C-6.8475 1.7325 -7.5075 1.4025 -8.1875 1.0625 C-5.17259443 0.05753148 -3.14568308 -0.04085303 0 0 Z " fill="#4B423B" transform="translate(100.1875,64.9375)"/>
<path d="M0 0 C-0.33 0.99 -0.66 1.98 -1 3 C-1.66 3.28875 -2.32 3.5775 -3 3.875 C-5.29150599 4.8553382 -5.29150599 4.8553382 -5.75 7.625 C-5.8325 8.40875 -5.915 9.1925 -6 10 C-6.66 10 -7.32 10 -8 10 C-8.48695652 2.57391304 -8.48695652 2.57391304 -6.25 -0.0625 C-3.6468225 -1.14715729 -2.58518155 -1.01560704 0 0 Z " fill="#D6BDA6" transform="translate(129,80)"/>
<path d="M0 0 C0.66 0.66 1.32 1.32 2 2 C0.50259067 6.84455959 0.50259067 6.84455959 -1 9 C-4.6875 9.9375 -4.6875 9.9375 -8 10 C-7.59007813 9.52949219 -7.18015625 9.05898437 -6.7578125 8.57421875 C-6.21898438 7.95160156 -5.68015625 7.32898438 -5.125 6.6875 C-4.59132813 6.07261719 -4.05765625 5.45773438 -3.5078125 4.82421875 C-1.8359553 2.86501788 -1.8359553 2.86501788 0 0 Z " fill="#D5B496" transform="translate(125,66)"/>
<path d="M0 0 C2.31 0.33 4.62 0.66 7 1 C7.625 2.875 7.625 2.875 8 5 C7.34 5.66 6.68 6.32 6 7 C5.67 6.67 5.34 6.34 5 6 C4.67 6.99 4.34 7.98 4 9 C3.34 9 2.68 9 2 9 C2.04125 7.88625 2.0825 6.7725 2.125 5.625 C2.41121859 1.95633975 2.41121859 1.95633975 0 0 Z " fill="#F2F2F2" transform="translate(85,130)"/>
<path d="M0 0 C-3 2 -3 2 -6.125 2.9375 C-7.548125 3.4634375 -7.548125 3.4634375 -9 4 C-9.33 4.99 -9.66 5.98 -10 7 C-10.33 6.01 -10.66 5.02 -11 4 C-11.66 3.67 -12.32 3.34 -13 3 C-8.30609874 -0.77801809 -5.8692391 -1.40861738 0 0 Z " fill="#DCCDC1" transform="translate(89,85)"/>
<path d="M0 0 C3.63 0 7.26 0 11 0 C10.67 0.99 10.34 1.98 10 3 C6.4375 4.1875 6.4375 4.1875 3 5 C1.5 3.625 1.5 3.625 0 2 C0 1.34 0 0.68 0 0 Z " fill="#E6C4A5" transform="translate(95,67)"/>
<path d="M0 0 C1.79093191 -0.08086147 3.58289628 -0.13912702 5.375 -0.1875 C6.87160156 -0.23970703 6.87160156 -0.23970703 8.3984375 -0.29296875 C9.25695312 -0.19628906 10.11546875 -0.09960938 11 0 C11.66 0.99 12.32 1.98 13 3 C8.545 3.495 8.545 3.495 4 4 C4 3.01 4 2.02 4 1 C2.68 0.67 1.36 0.34 0 0 Z " fill="#C8B193" transform="translate(152,35)"/>
<path d="M0 0 C1.49828872 3.88235819 0.43110582 6.43449288 -0.9375 10.25 C-1.31777344 11.32765625 -1.69804688 12.4053125 -2.08984375 13.515625 C-2.39019531 14.33546875 -2.69054687 15.1553125 -3 16 C-3.99 16 -4.98 16 -6 16 C-4.25192871 10.53262809 -2.34205919 5.24175152 0 0 Z " fill="#707778" transform="translate(78,163)"/>
<path d="M0 0 C-0.33 0.66 -0.66 1.32 -1 2 C-1.66 2 -2.32 2 -3 2 C-3 2.66 -3 3.32 -3 4 C-4.65 4 -6.3 4 -8 4 C-8.33 2.35 -8.66 0.7 -9 -1 C-5.23375329 -2.25541557 -3.62811066 -1.37061958 0 0 Z " fill="#2A2A2A" transform="translate(163,119)"/>
<path d="M0 0 C1.9375 0.6875 1.9375 0.6875 4 2 C4.75 4.625 4.75 4.625 5 7 C2.36 7 -0.28 7 -3 7 C-2.01 4.69 -1.02 2.38 0 0 Z " fill="#DCCDA6" transform="translate(10,46)"/>
<path d="M0 0 C0.66 0.33 1.32 0.66 2 1 C2 1.99 2 2.98 2 4 C4.31 4 6.62 4 9 4 C7 6 7 6 4.8359375 6.1953125 C3.61777344 6.16050781 3.61777344 6.16050781 2.375 6.125 C1.55773437 6.10695313 0.74046875 6.08890625 -0.1015625 6.0703125 C-0.72804687 6.04710938 -1.35453125 6.02390625 -2 6 C-2.33 4.35 -2.66 2.7 -3 1 C-2.01 0.67 -1.02 0.34 0 0 Z " fill="#111110" transform="translate(169,104)"/>
<path d="M0 0 C3.36720387 1.39332574 4.9859524 2.9789286 7 6 C7.66 4.68 8.32 3.36 9 2 C9.33 4.31 9.66 6.62 10 9 C7 9 7 9 5.17578125 7.28515625 C4.56089844 6.55167969 3.94601563 5.81820312 3.3125 5.0625 C2.68988281 4.33160156 2.06726562 3.60070312 1.42578125 2.84765625 C0 1 0 1 0 0 Z " fill="#525251" transform="translate(56,153)"/>
<path d="M0 0 C0.66 0.33 1.32 0.66 2 1 C2.34153937 2.66500443 2.67449498 4.33178677 3 6 C3.66 6.66 4.32 7.32 5 8 C3.824375 8.185625 3.824375 8.185625 2.625 8.375 C-0.14057822 8.79117993 -0.14057822 8.79117993 -2 11 C-2.28571429 3.57142857 -2.28571429 3.57142857 0 0 Z " fill="#898783" transform="translate(150,116)"/>
<path d="M0 0 C3.4375 1.1875 3.4375 1.1875 4.4375 3.1875 C1.1375 3.1875 -2.1625 3.1875 -5.5625 3.1875 C-5.5625 2.1975 -5.5625 1.2075 -5.5625 0.1875 C-3.5625 -0.8125 -3.5625 -0.8125 0 0 Z " fill="#A49A87" transform="translate(166.5625,78.8125)"/>
<path d="M0 0 C1.65 0.33 3.3 0.66 5 1 C4.125 7.75 4.125 7.75 3 10 C2.34 9.67 1.68 9.34 1 9 C1.33 7.68 1.66 6.36 2 5 C0.68 5.99 -0.64 6.98 -2 8 C-1.42655063 5.13275314 -1.1385485 4.1385485 1 2 C0.67 1.34 0.34 0.68 0 0 Z " fill="#554C46" transform="translate(47,75)"/>
<path d="M0 0 C0.99 0.66 1.98 1.32 3 2 C2.67 4.97 2.34 7.94 2 11 C-0.6855594 8.3144406 -1.06049974 5.62378672 -2 2 C-1.34 1.34 -0.68 0.68 0 0 Z " fill="#DAB697" transform="translate(139,59)"/>
<path d="M0 0 C0.66 0.66 1.32 1.32 2 2 C1.2884375 3.175625 1.2884375 3.175625 0.5625 4.375 C-0.33898023 5.88948678 -1.21179485 7.4235897 -2 9 C-2.99 8.67 -3.98 8.34 -5 8 C-4.67 6.35 -4.34 4.7 -4 3 C-3.34 3 -2.68 3 -2 3 C-2 2.34 -2 1.68 -2 1 C-1.34 0.67 -0.68 0.34 0 0 Z " fill="#94928B" transform="translate(162,101)"/>
<path d="M0 0 C1.98 0 3.96 0 6 0 C6.625 2.375 6.625 2.375 7 5 C6.34 5.66 5.68 6.32 5 7 C4.01 6.67 3.02 6.34 2 6 C2.66 4.35 3.32 2.7 4 1 C2.35 1.33 0.7 1.66 -1 2 C-0.67 1.34 -0.34 0.68 0 0 Z " fill="#EFD4BC" transform="translate(127,71)"/>
<path d="M0 0 C1.0625 1.8125 1.0625 1.8125 2 4 C1.67 4.99 1.34 5.98 1 7 C-1.375 7.625 -1.375 7.625 -4 8 C-4.66 7.34 -5.32 6.68 -6 6 C-5.195625 5.7525 -4.39125 5.505 -3.5625 5.25 C-0.828919 4.27761141 -0.828919 4.27761141 -0.1875 1.875 C-0.125625 1.25625 -0.06375 0.6375 0 0 Z " fill="#F0E9E1" transform="translate(105,123)"/>
<path d="M0 0 C1.134375 0.020625 2.26875 0.04125 3.4375 0.0625 C3.1075 1.0525 2.7775 2.0425 2.4375 3.0625 C1.4475 3.0625 0.4575 3.0625 -0.5625 3.0625 C-0.5625 3.7225 -0.5625 4.3825 -0.5625 5.0625 C-1.5525 5.0625 -2.5425 5.0625 -3.5625 5.0625 C-4.125 3.125 -4.125 3.125 -4.5625 1.0625 C-3.5625 0.0625 -3.5625 0.0625 0 0 Z " fill="#B0636C" transform="translate(106.5625,111.9375)"/>
<path d="M0 0 C2.475 0.495 2.475 0.495 5 1 C4.67 3.31 4.34 5.62 4 8 C3.01 8 2.02 8 1 8 C0.67 5.36 0.34 2.72 0 0 Z " fill="#B4B4B4" transform="translate(0,102)"/>
<path d="M0 0 C0.99 0.33 1.98 0.66 3 1 C4.66621616 1.03874921 6.33394172 1.0450286 8 1 C8 1.66 8 2.32 8 3 C6.02 3.99 6.02 3.99 4 5 C4 5.66 4 6.32 4 7 C3.01 6.67 2.02 6.34 1 6 C0.67 4.02 0.34 2.04 0 0 Z " fill="#191919" transform="translate(170,98)"/>
<path d="M0 0 C1.5 1.375 1.5 1.375 3 3 C3 3.66 3 4.32 3 5 C1.02 5.33 -0.96 5.66 -3 6 C-3.33 4.68 -3.66 3.36 -4 2 C-2.68 1.34 -1.36 0.68 0 0 Z " fill="#ADA196" transform="translate(53,88)"/>
<path d="M0 0 C-0.33 0.66 -0.66 1.32 -1 2 C-3.97 2 -6.94 2 -10 2 C-9.67 1.01 -9.34 0.02 -9 -1 C-5.52718036 -2.61238055 -3.32673591 -1.57095862 0 0 Z " fill="#393938" transform="translate(177,120)"/>
<path d="M0 0 C0.99 0.33 1.98 0.66 3 1 C3.6875 3.3125 3.6875 3.3125 4 6 C2.5625 7.8125 2.5625 7.8125 1 9 C0.34 8.67 -0.32 8.34 -1 8 C-0.67 5.36 -0.34 2.72 0 0 Z " fill="#CCC9B6" transform="translate(157,96)"/>
<path d="M0 0 C2.475 0.495 2.475 0.495 5 1 C5 1.99 5 2.98 5 4 C6.98 4 8.96 4 11 4 C11 4.33 11 4.66 11 5 C4.66371681 6.3403676 4.66371681 6.3403676 1.5625 4.75 C0 3 0 3 0 0 Z " fill="#464545" transform="translate(167,86)"/>
<path d="M0 0 C1.4540625 0.0309375 1.4540625 0.0309375 2.9375 0.0625 C0.72822873 3.55082306 -1.14847051 4.79308503 -5.0625 6.0625 C-3.98897059 0.08140756 -3.98897059 0.08140756 0 0 Z " fill="#EBC6A4" transform="translate(130.0625,66.9375)"/>
<path d="M0 0 C1.58137059 4.74411176 -1.08555589 8.12298314 -3.1875 12.4375 C-3.455625 12.953125 -3.72375 13.46875 -4 14 C-4.66 14 -5.32 14 -6 14 C-4.50829734 9.0276578 -2.39542583 4.58154261 0 0 Z " fill="#494949" transform="translate(110,160)"/>
<path d="M0 0 C0.33 0.66 0.66 1.32 1 2 C0.0625 4.625 0.0625 4.625 -1 7 C-1.53625 6.649375 -2.0725 6.29875 -2.625 5.9375 C-5.73274763 4.71075751 -7.79431703 5.27143569 -11 6 C-8.61542052 4.41028035 -6.3695876 3.13258407 -3.8125 1.875 C-3.09707031 1.52179688 -2.38164063 1.16859375 -1.64453125 0.8046875 C-1.10183594 0.53914063 -0.55914062 0.27359375 0 0 Z " fill="#605F61" transform="translate(112,126)"/>
<path d="M0 0 C-0.33 1.32 -0.66 2.64 -1 4 C-1 3.34 -1 2.68 -1 2 C-1.99 2.66 -2.98 3.32 -4 4 C-4.99 3.67 -5.98 3.34 -7 3 C-8.66362417 2.65179959 -10.32995171 2.31595508 -12 2 C-12 1.67 -12 1.34 -12 1 C-7.93631321 0.22596442 -4.13574827 -0.0984702 0 0 Z " fill="#262625" transform="translate(179,110)"/>
<path d="M0 0 C0.33 0.66 0.66 1.32 1 2 C2.32 1.67 3.64 1.34 5 1 C4.34 3.64 3.68 6.28 3 9 C2.67 9 2.34 9 2 9 C1.67 7.35 1.34 5.7 1 4 C0.21625 4.515625 -0.5675 5.03125 -1.375 5.5625 C-2.24125 6.036875 -3.1075 6.51125 -4 7 C-4.66 6.67 -5.32 6.34 -6 6 C-5.195625 5.38125 -4.39125 4.7625 -3.5625 4.125 C-0.96125481 2.25835959 -0.96125481 2.25835959 0 0 Z " fill="#463C36" transform="translate(139,72)"/>
<path d="M0 0 C3.77001757 0.40978452 5.80106814 0.86737876 9 3 C9 3.99 9 4.98 9 6 C8.34 6 7.68 6 7 6 C6.34 5.01 5.68 4.02 5 3 C3.1477633 1.99521963 3.1477633 1.99521963 1 2 C-1.24755753 3.3516367 -1.24755753 3.3516367 -3 5 C-1.125 1.125 -1.125 1.125 0 0 Z " fill="#F6EDE4" transform="translate(85,74)"/>
<path d="M0 0 C2.64 0 5.28 0 8 0 C6.68 1.65 5.36 3.3 4 5 C3.01 4.67 2.02 4.34 1 4 C0.3125 1.9375 0.3125 1.9375 0 0 Z " fill="#E4D4C7" transform="translate(104,55)"/>
<path d="M0 0 C2.475 0.99 2.475 0.99 5 2 C4.25 3.9375 4.25 3.9375 3 6 C0.875 6.75 0.875 6.75 -1 7 C-0.67 4.69 -0.34 2.38 0 0 Z " fill="#D5C1A0" transform="translate(138,13)"/>
<path d="M0 0 C0.99 0 1.98 0 3 0 C3 1.65 3 3.3 3 5 C2.01 5 1.02 5 0 5 C-0.66 6.32 -1.32 7.64 -2 9 C-2.125 5.625 -2.125 5.625 -2 2 C-1.34 1.34 -0.68 0.68 0 0 Z " fill="#DFD0AF" transform="translate(90,154)"/>
<path d="M0 0 C-2.72226766 2.72226766 -5.36688418 3.78896139 -9 5 C-9 5.66 -9 6.32 -9 7 C-9.66 7 -10.32 7 -11 7 C-11 5.35 -11 3.7 -11 2 C-7.17679443 0.57741188 -4.08718695 -0.24042276 0 0 Z " fill="#686867" transform="translate(164,134)"/>
<path d="M0 0 C-1.485 1.485 -1.485 1.485 -3 3 C-2.01 3.33 -1.02 3.66 0 4 C0 4.99 0 5.98 0 7 C-0.66 7 -1.32 7 -2 7 C-2 6.34 -2 5.68 -2 5 C-2.66 5 -3.32 5 -4 5 C-4.66 3.35 -5.32 1.7 -6 0 C-3.50907189 -1.24546405 -2.58919267 -0.7767578 0 0 Z " fill="#7A7274" transform="translate(103,110)"/>
<path d="M0 0 C1.32 0 2.64 0 4 0 C4.14285714 8.57142857 4.14285714 8.57142857 3 12 C2.34 11.67 1.68 11.34 1 11 C0.59270772 8.67843403 0.25561323 6.3431213 0 4 C0.66 4 1.32 4 2 4 C2 3.01 2 2.02 2 1 C1.34 0.67 0.68 0.34 0 0 Z " fill="#B7B7B5" transform="translate(1,85)"/>
<path d="M0 0 C0.66 0 1.32 0 2 0 C2.66 2.64 3.32 5.28 4 8 C3.01 7.67 2.02 7.34 1 7 C0.34 7 -0.32 7 -1 7 C-0.67 4.69 -0.34 2.38 0 0 Z " fill="#D0CFC5" transform="translate(131,136)"/>
<path d="M0 0 C3.465 1.485 3.465 1.485 7 3 C4.66785852 4.20628008 2.50357861 5.1654738 0 6 C-2.6875 5.0625 -2.6875 5.0625 -5 4 C-1.25 2.875 -1.25 2.875 1 4 C0.67 2.68 0.34 1.36 0 0 Z " fill="#3C3735" transform="translate(94,127)"/>
<path d="M0 0 C0.6875 2.0625 0.6875 2.0625 1 4 C-0.75 4.75 -0.75 4.75 -3 5 C-5.25 3.0625 -5.25 3.0625 -7 1 C-3.375 -1.125 -3.375 -1.125 0 0 Z " fill="#444443" transform="translate(163,113)"/>
<path d="M0 0 C0.66 0.33 1.32 0.66 2 1 C1.5205537 5.21912747 0.83374881 7.79663178 -2 11 C-2.99 10.67 -3.98 10.34 -5 10 C-4.360625 9.278125 -3.72125 8.55625 -3.0625 7.8125 C-1.01326465 5.01808816 -0.38667054 3.38336726 0 0 Z " fill="#EBE3DB" transform="translate(132,103)"/>
<path d="M0 0 C0.99 0.33 1.98 0.66 3 1 C3 2.98 3 4.96 3 7 C2.01 7.33 1.02 7.66 0 8 C-1.09658936 4.71023192 -0.79953138 3.28696233 0 0 Z " fill="#D4D4D4" transform="translate(4,94)"/>
<path d="M0 0 C-3.41016497 2.86453858 -6.90694544 4.34703566 -11 6 C-9.89210592 2.67631776 -9.51563783 2.38436907 -6.625 0.75 C-6.01914063 0.39421875 -5.41328125 0.0384375 -4.7890625 -0.328125 C-3 -1 -3 -1 0 0 Z " fill="#F3E7DB" transform="translate(112,89)"/>
<path d="M0 0 C2.31 0 4.62 0 7 0 C7 0.99 7 1.98 7 3 C5.02 3.66 3.04 4.32 1 5 C0.67 3.35 0.34 1.7 0 0 Z " fill="#E1DFD4" transform="translate(155,86)"/>
<path d="M0 0 C-0.639375 0.28875 -1.27875 0.5775 -1.9375 0.875 C-4.15206079 1.82823451 -4.15206079 1.82823451 -5 4 C-7.31 4 -9.62 4 -12 4 C-12.33 3.34 -12.66 2.68 -13 2 C-4.57142857 -0.28571429 -4.57142857 -0.28571429 0 0 Z " fill="#EFDDCC" transform="translate(96,81)"/>
<path d="M0 0 C3 1 3 1 4.0625 2.9375 C4.371875 3.618125 4.68125 4.29875 5 5 C5.66 5.66 6.32 6.32 7 7 C5.35 7.33 3.7 7.66 2 8 C1.814375 7.071875 1.814375 7.071875 1.625 6.125 C1.12802644 3.80879168 1.12802644 3.80879168 -1 2 C-0.67 1.34 -0.34 0.68 0 0 Z " fill="#C7C5BC" transform="translate(152,144)"/>
<path d="M0 0 C2.375 0.8125 2.375 0.8125 4.375 2.8125 C0.745 2.8125 -2.885 2.8125 -6.625 2.8125 C-2.625 -0.1875 -2.625 -0.1875 0 0 Z " fill="#DBC1AA" transform="translate(91.625,69.1875)"/>
<path d="M0 0 C3.63 0.33 7.26 0.66 11 1 C11 1.33 11 1.66 11 2 C8.69 2 6.38 2 4 2 C4.33 3.32 4.66 4.64 5 6 C4.01 5.67 3.02 5.34 2 5 C2 3.68 2 2.36 2 1 C1.34 0.67 0.68 0.34 0 0 Z " fill="#E3D7B8" transform="translate(12,47)"/>
<path d="M0 0 C4.455 0.99 4.455 0.99 9 2 C5.23312136 3.88343932 3.97041037 4.22057835 0 4 C0 2.68 0 1.36 0 0 Z " fill="#AA977E" transform="translate(109,1)"/>
<path d="M0 0 C-1.49097658 3.7952131 -3.75700849 5.61042731 -7 8 C-7 5 -7 5 -4.625 2.3125 C-2 0 -2 0 0 0 Z " fill="#414141" transform="translate(126,163)"/>
<path d="M0 0 C0.33 0.66 0.66 1.32 1 2 C1.99 1.67 2.98 1.34 4 1 C4 2.65 4 4.3 4 6 C2.35 6 0.7 6 -1 6 C-0.67 4.02 -0.34 2.04 0 0 Z " fill="#CBCDD3" transform="translate(84,142)"/>
<path d="M0 0 C2.31406112 3.47109168 2.08619615 4.94878113 2 9 C2.33 9.66 2.66 10.32 3 11 C2.01 12.32 1.02 13.64 0 15 C0 10.05 0 5.1 0 0 Z " fill="#383737" transform="translate(78,122)"/>
<path d="M0 0 C0.66 1.32 1.32 2.64 2 4 C-1.3 4 -4.6 4 -8 4 C-5.53721199 1.53721199 -3.29323018 1.00228745 0 0 Z " fill="#0B0B0B" transform="translate(179,93)"/>
<path d="M0 0 C0.99 0.33 1.98 0.66 3 1 C2.67 3.31 2.34 5.62 2 8 C1.01 8.33 0.02 8.66 -1 9 C-0.835 8.071875 -0.67 7.14375 -0.5 6.1875 C0.07748388 3.04378647 0.07748388 3.04378647 0 0 Z " fill="#DEC3AB" transform="translate(137,81)"/>
<path d="M0 0 C0 1.32 0 2.64 0 4 C-1.98 4.33 -3.96 4.66 -6 5 C-6 3.35 -6 1.7 -6 0 C-2.25 -1.125 -2.25 -1.125 0 0 Z " fill="#BFA288" transform="translate(134,78)"/>
<path d="M0 0 C3.65316671 1.24976756 4.78065836 1.67098753 7 5 C5.824375 5.2165625 5.824375 5.2165625 4.625 5.4375 C2.03578982 5.87798925 2.03578982 5.87798925 0 7 C0 4.69 0 2.38 0 0 Z " fill="#AA9D93" transform="translate(73,73)"/>
<path d="M0 0 C0.33 0 0.66 0 1 0 C1.33 3.96 1.66 7.92 2 12 C0.68 12 -0.64 12 -2 12 C-1.34 8.04 -0.68 4.08 0 0 Z " fill="#767676" transform="translate(66,38)"/>
<path d="M0 0 C0.99 0.33 1.98 0.66 3 1 C3.33 1.99 3.66 2.98 4 4 C0.7 4 -2.6 4 -6 4 C-4.68 3.34 -3.36 2.68 -2 2 C-1.34 1.34 -0.68 0.68 0 0 Z " fill="#BDA687" transform="translate(157,29)"/>
<path d="M0 0 C-0.33 0.99 -0.66 1.98 -1 3 C-2.65 3 -4.3 3 -6 3 C-6.33 2.01 -6.66 1.02 -7 0 C-3.86650268 -1.04449911 -3.01031744 -0.93423645 0 0 Z " fill="#1A1A1A" transform="translate(173,128)"/>
<path d="M0 0 C0.6875 1.75 0.6875 1.75 1 4 C-0.4375 6.25 -0.4375 6.25 -2 8 C-2.66 6.35 -3.32 4.7 -4 3 C-2.68 2.67 -1.36 2.34 0 2 C0 1.34 0 0.68 0 0 Z " fill="#6A979B" transform="translate(73,167)"/>
<path d="M0 0 C-1.1875 2 -1.1875 2 -3 4 C-5.6875 4.25 -5.6875 4.25 -8 4 C-8 3.01 -8 2.02 -8 1 C-5.29120665 -0.35439668 -2.99066732 -0.06501451 0 0 Z " fill="#454545" transform="translate(161,132)"/>
<path d="M0 0 C2.97 0.495 2.97 0.495 6 1 C6.33 1.99 6.66 2.98 7 4 C4.625 4.625 4.625 4.625 2 5 C1.34 4.34 0.68 3.68 0 3 C0 2.01 0 1.02 0 0 Z " fill="#6F6F6D" transform="translate(149,131)"/>
<path d="M0 0 C1.65 0 3.3 0 5 0 C3.8141763 3.37503669 2.72426311 5.64722731 0 8 C0.57584432 5.61435923 1.22227595 3.33317216 2 1 C1.34 0.67 0.68 0.34 0 0 Z " fill="#474342" transform="translate(115,107)"/>
<path d="M0 0 C0.66 1.32 1.32 2.64 2 4 C0.02 4.99 0.02 4.99 -2 6 C-2.66 5.34 -3.32 4.68 -4 4 C-3.67 3.01 -3.34 2.02 -3 1 C-2.01 0.67 -1.02 0.34 0 0 Z " fill="#C6C3B3" transform="translate(156,105)"/>
<path d="M0 0 C0.66 0 1.32 0 2 0 C2.33 2.97 2.66 5.94 3 9 C0.9375 6.75 0.9375 6.75 -1 4 C-0.75 1.6875 -0.75 1.6875 0 0 Z " fill="#E1D3C6" transform="translate(54,84)"/>
<path d="M0 0 C0.99 0.33 1.98 0.66 3 1 C3 1.99 3 2.98 3 4 C1.02 4 -0.96 4 -3 4 C-2.67 3.01 -2.34 2.02 -2 1 C-1.34 0.67 -0.68 0.34 0 0 Z " fill="#C2A684" transform="translate(24,28)"/>
<path d="M0 0 C0.33 0 0.66 0 1 0 C1.22134176 2.12368444 1.42670007 4.24904024 1.625 6.375 C1.74101562 7.55835937 1.85703125 8.74171875 1.9765625 9.9609375 C1.98429688 10.96382812 1.99203125 11.96671875 2 13 C1.34 13.66 0.68 14.32 0 15 C-1.14229879 11.57310364 -0.90861076 9.38897782 -0.5625 5.8125 C-0.46066406 4.72582031 -0.35882813 3.63914062 -0.25390625 2.51953125 C-0.17011719 1.68808594 -0.08632812 0.85664062 0 0 Z " fill="#313030" transform="translate(145,92)"/>
<path d="M0 0 C2.475 0.99 2.475 0.99 5 2 C5 2.99 5 3.98 5 5 C5.66 5.66 6.32 6.32 7 7 C4.20171644 6.61402985 3.1794116 6.19863427 1.25 4.0625 C0 2 0 2 0 0 Z " fill="#53483E" transform="translate(96,84)"/>
<path d="M0 0 C0.70640625 0.28746094 1.4128125 0.57492188 2.140625 0.87109375 C2.67171875 1.09925781 3.2028125 1.32742187 3.75 1.5625 C3.75 1.8925 3.75 2.2225 3.75 2.5625 C2.31163249 2.44791307 0.87429034 2.32040884 -0.5625 2.1875 C-1.36300781 2.11789063 -2.16351563 2.04828125 -2.98828125 1.9765625 C-5.25 1.5625 -5.25 1.5625 -8.25 -0.4375 C-4.94564916 -1.56127697 -3.1993138 -1.33304742 0 0 Z " fill="#3A332F" transform="translate(114.25,64.4375)"/>
<path d="M0 0 C1.32 0 2.64 0 4 0 C3.67 1.65 3.34 3.3 3 5 C2.34 5 1.68 5 1 5 C0.67 3.35 0.34 1.7 0 0 Z " fill="#141414" transform="translate(177,102)"/>
<path d="M0 0 C1.42944945 2.35438733 2.08661261 3.48032433 1.625 6.25 C1.41875 6.8275 1.2125 7.405 1 8 C0.01 8 -0.98 8 -2 8 C-1.47731534 5.23723823 -0.89130413 2.6739124 0 0 Z " fill="#474744" transform="translate(167,95)"/>
<path d="M0 0 C5.75 0.875 5.75 0.875 8 2 C7.67 2.99 7.34 3.98 7 5 C3.535 3.02 3.535 3.02 0 1 C0 0.67 0 0.34 0 0 Z " fill="#DBD0C6" transform="translate(43,95)"/>
<path d="M0 0 C0.99 0 1.98 0 3 0 C3 1.98 3 3.96 3 6 C1.68 5.34 0.36 4.68 -1 4 C-0.67 2.68 -0.34 1.36 0 0 Z " fill="#C7C5BB" transform="translate(162,86)"/>
<path d="M0 0 C0.66 0 1.32 0 2 0 C2 2.31 2 4.62 2 7 C1.01 6.67 0.02 6.34 -1 6 C-1.8125 4.0625 -1.8125 4.0625 -2 2 C-1.34 1.34 -0.68 0.68 0 0 Z " fill="#DECEC0" transform="translate(81,73)"/>
<path d="M0 0 C0.33 0 0.66 0 1 0 C1 1.98 1 3.96 1 6 C0.34 6 -0.32 6 -1 6 C-0.01 7.32 0.98 8.64 2 10 C0.68 9.67 -0.64 9.34 -2 9 C-2.33 7.68 -2.66 6.36 -3 5 C-2.34 4.67 -1.68 4.34 -1 4 C-0.34786708 1.97536745 -0.34786708 1.97536745 0 0 Z " fill="#BDA98E" transform="translate(42,13)"/>
</svg>
